<mxfile host="Electron" modified="2024-10-06T18:27:59.946Z" agent="Mozilla/5.0 (Windows NT 10.0; Win64; x64) AppleWebKit/537.36 (KHTML, like Gecko) draw.io/24.6.1 Chrome/124.0.6367.207 Electron/30.0.6 Safari/537.36" etag="v8a_sIuumOJp6571spQE" version="24.6.1" type="device">
  <diagram name="Page-1" id="OOWbRKoUnhNHBebO3xgw">
    <mxGraphModel dx="4755" dy="3373" grid="1" gridSize="10" guides="1" tooltips="1" connect="1" arrows="1" fold="1" page="1" pageScale="1" pageWidth="850" pageHeight="1100" math="0" shadow="0">
      <root>
        <mxCell id="0" />
        <mxCell id="1" parent="0" />
        <mxCell id="eUxJNlt0HOpgg095ER0J-43" style="edgeStyle=orthogonalEdgeStyle;rounded=0;orthogonalLoop=1;jettySize=auto;html=1;exitX=1;exitY=0.5;exitDx=0;exitDy=0;entryX=0;entryY=0.5;entryDx=0;entryDy=0;" parent="1" source="eUxJNlt0HOpgg095ER0J-12" target="eUxJNlt0HOpgg095ER0J-13" edge="1">
          <mxGeometry relative="1" as="geometry" />
        </mxCell>
        <mxCell id="eUxJNlt0HOpgg095ER0J-12" value="" style="ellipse;whiteSpace=wrap;html=1;aspect=fixed;" parent="1" vertex="1">
          <mxGeometry x="-765" y="-764" width="60" height="60" as="geometry" />
        </mxCell>
        <mxCell id="eUxJNlt0HOpgg095ER0J-44" style="edgeStyle=orthogonalEdgeStyle;rounded=0;orthogonalLoop=1;jettySize=auto;html=1;exitX=1;exitY=0.5;exitDx=0;exitDy=0;" parent="1" source="eUxJNlt0HOpgg095ER0J-13" target="eUxJNlt0HOpgg095ER0J-14" edge="1">
          <mxGeometry relative="1" as="geometry" />
        </mxCell>
        <mxCell id="eUxJNlt0HOpgg095ER0J-13" value="" style="rounded=0;whiteSpace=wrap;html=1;fillColor=#000000;" parent="1" vertex="1">
          <mxGeometry x="-650" y="-779" width="20" height="90" as="geometry" />
        </mxCell>
        <mxCell id="eUxJNlt0HOpgg095ER0J-47" style="edgeStyle=orthogonalEdgeStyle;rounded=0;orthogonalLoop=1;jettySize=auto;html=1;exitX=1;exitY=0.5;exitDx=0;exitDy=0;entryX=0;entryY=0.5;entryDx=0;entryDy=0;" parent="1" source="eUxJNlt0HOpgg095ER0J-14" target="eUxJNlt0HOpgg095ER0J-15" edge="1">
          <mxGeometry relative="1" as="geometry" />
        </mxCell>
        <mxCell id="eUxJNlt0HOpgg095ER0J-14" value="" style="ellipse;whiteSpace=wrap;html=1;aspect=fixed;" parent="1" vertex="1">
          <mxGeometry x="-575" y="-764" width="60" height="60" as="geometry" />
        </mxCell>
        <mxCell id="eUxJNlt0HOpgg095ER0J-48" style="edgeStyle=orthogonalEdgeStyle;rounded=0;orthogonalLoop=1;jettySize=auto;html=1;exitX=1;exitY=0.5;exitDx=0;exitDy=0;entryX=0;entryY=0.5;entryDx=0;entryDy=0;" parent="1" source="eUxJNlt0HOpgg095ER0J-15" target="eUxJNlt0HOpgg095ER0J-16" edge="1">
          <mxGeometry relative="1" as="geometry" />
        </mxCell>
        <mxCell id="eUxJNlt0HOpgg095ER0J-15" value="" style="rounded=0;whiteSpace=wrap;html=1;fillColor=#000000;" parent="1" vertex="1">
          <mxGeometry x="-465" y="-779" width="20" height="90" as="geometry" />
        </mxCell>
        <mxCell id="eUxJNlt0HOpgg095ER0J-57" value="" style="edgeStyle=orthogonalEdgeStyle;rounded=0;orthogonalLoop=1;jettySize=auto;html=1;" parent="1" source="eUxJNlt0HOpgg095ER0J-16" target="eUxJNlt0HOpgg095ER0J-17" edge="1">
          <mxGeometry relative="1" as="geometry" />
        </mxCell>
        <mxCell id="eUxJNlt0HOpgg095ER0J-16" value="" style="ellipse;whiteSpace=wrap;html=1;aspect=fixed;" parent="1" vertex="1">
          <mxGeometry x="-395" y="-569" width="60" height="60" as="geometry" />
        </mxCell>
        <mxCell id="eUxJNlt0HOpgg095ER0J-58" value="" style="edgeStyle=orthogonalEdgeStyle;rounded=0;orthogonalLoop=1;jettySize=auto;html=1;" parent="1" source="eUxJNlt0HOpgg095ER0J-17" target="eUxJNlt0HOpgg095ER0J-18" edge="1">
          <mxGeometry relative="1" as="geometry" />
        </mxCell>
        <mxCell id="eUxJNlt0HOpgg095ER0J-17" value="" style="rounded=0;whiteSpace=wrap;html=1;fillColor=#000000;" parent="1" vertex="1">
          <mxGeometry x="-270" y="-584" width="20" height="90" as="geometry" />
        </mxCell>
        <mxCell id="eUxJNlt0HOpgg095ER0J-59" value="" style="edgeStyle=orthogonalEdgeStyle;rounded=0;orthogonalLoop=1;jettySize=auto;html=1;" parent="1" source="eUxJNlt0HOpgg095ER0J-18" target="eUxJNlt0HOpgg095ER0J-31" edge="1">
          <mxGeometry relative="1" as="geometry" />
        </mxCell>
        <mxCell id="eUxJNlt0HOpgg095ER0J-18" value="" style="ellipse;whiteSpace=wrap;html=1;aspect=fixed;" parent="1" vertex="1">
          <mxGeometry x="-195" y="-569" width="60" height="60" as="geometry" />
        </mxCell>
        <mxCell id="eUxJNlt0HOpgg095ER0J-41" style="edgeStyle=orthogonalEdgeStyle;rounded=0;orthogonalLoop=1;jettySize=auto;html=1;entryX=0;entryY=0.5;entryDx=0;entryDy=0;" parent="1" source="eUxJNlt0HOpgg095ER0J-19" target="eUxJNlt0HOpgg095ER0J-20" edge="1">
          <mxGeometry relative="1" as="geometry" />
        </mxCell>
        <mxCell id="eUxJNlt0HOpgg095ER0J-19" value="" style="ellipse;whiteSpace=wrap;html=1;aspect=fixed;" parent="1" vertex="1">
          <mxGeometry x="-765" y="-888" width="60" height="60" as="geometry" />
        </mxCell>
        <mxCell id="eUxJNlt0HOpgg095ER0J-42" style="edgeStyle=orthogonalEdgeStyle;rounded=0;orthogonalLoop=1;jettySize=auto;html=1;exitX=1;exitY=0.5;exitDx=0;exitDy=0;entryX=0;entryY=0.5;entryDx=0;entryDy=0;" parent="1" source="eUxJNlt0HOpgg095ER0J-20" target="eUxJNlt0HOpgg095ER0J-14" edge="1">
          <mxGeometry relative="1" as="geometry" />
        </mxCell>
        <mxCell id="eUxJNlt0HOpgg095ER0J-20" value="" style="rounded=0;whiteSpace=wrap;html=1;fillColor=#000000;" parent="1" vertex="1">
          <mxGeometry x="-650" y="-903" width="20" height="90" as="geometry" />
        </mxCell>
        <mxCell id="eUxJNlt0HOpgg095ER0J-45" style="edgeStyle=orthogonalEdgeStyle;rounded=0;orthogonalLoop=1;jettySize=auto;html=1;exitX=1;exitY=0.5;exitDx=0;exitDy=0;entryX=0;entryY=0.5;entryDx=0;entryDy=0;" parent="1" source="eUxJNlt0HOpgg095ER0J-21" target="eUxJNlt0HOpgg095ER0J-22" edge="1">
          <mxGeometry relative="1" as="geometry" />
        </mxCell>
        <mxCell id="eUxJNlt0HOpgg095ER0J-21" value="" style="ellipse;whiteSpace=wrap;html=1;aspect=fixed;" parent="1" vertex="1">
          <mxGeometry x="-765" y="-644" width="60" height="60" as="geometry" />
        </mxCell>
        <mxCell id="eUxJNlt0HOpgg095ER0J-46" style="edgeStyle=orthogonalEdgeStyle;rounded=0;orthogonalLoop=1;jettySize=auto;html=1;exitX=1;exitY=0.5;exitDx=0;exitDy=0;entryX=0;entryY=0.5;entryDx=0;entryDy=0;" parent="1" source="eUxJNlt0HOpgg095ER0J-22" target="eUxJNlt0HOpgg095ER0J-14" edge="1">
          <mxGeometry relative="1" as="geometry" />
        </mxCell>
        <mxCell id="eUxJNlt0HOpgg095ER0J-22" value="" style="rounded=0;whiteSpace=wrap;html=1;fillColor=#000000;" parent="1" vertex="1">
          <mxGeometry x="-650" y="-659" width="20" height="90" as="geometry" />
        </mxCell>
        <mxCell id="eUxJNlt0HOpgg095ER0J-51" style="edgeStyle=orthogonalEdgeStyle;rounded=0;orthogonalLoop=1;jettySize=auto;html=1;exitX=1;exitY=0.5;exitDx=0;exitDy=0;entryX=0;entryY=0.5;entryDx=0;entryDy=0;" parent="1" source="eUxJNlt0HOpgg095ER0J-23" target="eUxJNlt0HOpgg095ER0J-24" edge="1">
          <mxGeometry relative="1" as="geometry" />
        </mxCell>
        <mxCell id="eUxJNlt0HOpgg095ER0J-23" value="" style="ellipse;whiteSpace=wrap;html=1;aspect=fixed;" parent="1" vertex="1">
          <mxGeometry x="-765" y="-400" width="60" height="60" as="geometry" />
        </mxCell>
        <mxCell id="eUxJNlt0HOpgg095ER0J-52" style="edgeStyle=orthogonalEdgeStyle;rounded=0;orthogonalLoop=1;jettySize=auto;html=1;exitX=1;exitY=0.5;exitDx=0;exitDy=0;entryX=0;entryY=0.5;entryDx=0;entryDy=0;" parent="1" source="eUxJNlt0HOpgg095ER0J-24" target="eUxJNlt0HOpgg095ER0J-25" edge="1">
          <mxGeometry relative="1" as="geometry" />
        </mxCell>
        <mxCell id="eUxJNlt0HOpgg095ER0J-24" value="" style="rounded=0;whiteSpace=wrap;html=1;fillColor=#000000;" parent="1" vertex="1">
          <mxGeometry x="-650" y="-415" width="20" height="90" as="geometry" />
        </mxCell>
        <mxCell id="eUxJNlt0HOpgg095ER0J-55" style="edgeStyle=orthogonalEdgeStyle;rounded=0;orthogonalLoop=1;jettySize=auto;html=1;exitX=1;exitY=0.5;exitDx=0;exitDy=0;entryX=0;entryY=0.5;entryDx=0;entryDy=0;" parent="1" source="eUxJNlt0HOpgg095ER0J-25" target="eUxJNlt0HOpgg095ER0J-26" edge="1">
          <mxGeometry relative="1" as="geometry" />
        </mxCell>
        <mxCell id="eUxJNlt0HOpgg095ER0J-25" value="" style="ellipse;whiteSpace=wrap;html=1;aspect=fixed;" parent="1" vertex="1">
          <mxGeometry x="-575" y="-400" width="60" height="60" as="geometry" />
        </mxCell>
        <mxCell id="eUxJNlt0HOpgg095ER0J-56" style="edgeStyle=orthogonalEdgeStyle;rounded=0;orthogonalLoop=1;jettySize=auto;html=1;exitX=1;exitY=0.5;exitDx=0;exitDy=0;entryX=0;entryY=0.5;entryDx=0;entryDy=0;" parent="1" source="eUxJNlt0HOpgg095ER0J-26" target="eUxJNlt0HOpgg095ER0J-16" edge="1">
          <mxGeometry relative="1" as="geometry" />
        </mxCell>
        <mxCell id="eUxJNlt0HOpgg095ER0J-26" value="" style="rounded=0;whiteSpace=wrap;html=1;fillColor=#000000;" parent="1" vertex="1">
          <mxGeometry x="-465" y="-415" width="20" height="90" as="geometry" />
        </mxCell>
        <mxCell id="eUxJNlt0HOpgg095ER0J-49" style="edgeStyle=orthogonalEdgeStyle;rounded=0;orthogonalLoop=1;jettySize=auto;html=1;entryX=0;entryY=0.5;entryDx=0;entryDy=0;" parent="1" source="eUxJNlt0HOpgg095ER0J-27" target="eUxJNlt0HOpgg095ER0J-28" edge="1">
          <mxGeometry relative="1" as="geometry" />
        </mxCell>
        <mxCell id="eUxJNlt0HOpgg095ER0J-27" value="" style="ellipse;whiteSpace=wrap;html=1;aspect=fixed;" parent="1" vertex="1">
          <mxGeometry x="-765" y="-524" width="60" height="60" as="geometry" />
        </mxCell>
        <mxCell id="eUxJNlt0HOpgg095ER0J-50" style="edgeStyle=orthogonalEdgeStyle;rounded=0;orthogonalLoop=1;jettySize=auto;html=1;exitX=1;exitY=0.5;exitDx=0;exitDy=0;entryX=0;entryY=0.5;entryDx=0;entryDy=0;" parent="1" source="eUxJNlt0HOpgg095ER0J-28" target="eUxJNlt0HOpgg095ER0J-25" edge="1">
          <mxGeometry relative="1" as="geometry" />
        </mxCell>
        <mxCell id="eUxJNlt0HOpgg095ER0J-28" value="" style="rounded=0;whiteSpace=wrap;html=1;fillColor=#000000;" parent="1" vertex="1">
          <mxGeometry x="-650" y="-539" width="20" height="90" as="geometry" />
        </mxCell>
        <mxCell id="eUxJNlt0HOpgg095ER0J-53" style="edgeStyle=orthogonalEdgeStyle;rounded=0;orthogonalLoop=1;jettySize=auto;html=1;exitX=1;exitY=0.5;exitDx=0;exitDy=0;entryX=0;entryY=0.5;entryDx=0;entryDy=0;" parent="1" source="eUxJNlt0HOpgg095ER0J-29" target="eUxJNlt0HOpgg095ER0J-30" edge="1">
          <mxGeometry relative="1" as="geometry" />
        </mxCell>
        <mxCell id="eUxJNlt0HOpgg095ER0J-29" value="" style="ellipse;whiteSpace=wrap;html=1;aspect=fixed;" parent="1" vertex="1">
          <mxGeometry x="-765" y="-280" width="60" height="60" as="geometry" />
        </mxCell>
        <mxCell id="eUxJNlt0HOpgg095ER0J-54" style="edgeStyle=orthogonalEdgeStyle;rounded=0;orthogonalLoop=1;jettySize=auto;html=1;exitX=1;exitY=0.5;exitDx=0;exitDy=0;entryX=0;entryY=0.5;entryDx=0;entryDy=0;" parent="1" source="eUxJNlt0HOpgg095ER0J-30" target="eUxJNlt0HOpgg095ER0J-25" edge="1">
          <mxGeometry relative="1" as="geometry" />
        </mxCell>
        <mxCell id="eUxJNlt0HOpgg095ER0J-30" value="" style="rounded=0;whiteSpace=wrap;html=1;fillColor=#000000;" parent="1" vertex="1">
          <mxGeometry x="-650" y="-295" width="20" height="90" as="geometry" />
        </mxCell>
        <mxCell id="eUxJNlt0HOpgg095ER0J-60" value="" style="edgeStyle=orthogonalEdgeStyle;rounded=0;orthogonalLoop=1;jettySize=auto;html=1;" parent="1" source="eUxJNlt0HOpgg095ER0J-31" target="eUxJNlt0HOpgg095ER0J-32" edge="1">
          <mxGeometry relative="1" as="geometry" />
        </mxCell>
        <mxCell id="eUxJNlt0HOpgg095ER0J-31" value="" style="rounded=0;whiteSpace=wrap;html=1;fillColor=#000000;" parent="1" vertex="1">
          <mxGeometry x="-75" y="-584" width="20" height="90" as="geometry" />
        </mxCell>
        <mxCell id="eUxJNlt0HOpgg095ER0J-61" value="" style="edgeStyle=orthogonalEdgeStyle;rounded=0;orthogonalLoop=1;jettySize=auto;html=1;" parent="1" source="eUxJNlt0HOpgg095ER0J-32" edge="1">
          <mxGeometry relative="1" as="geometry">
            <mxPoint x="114.99999999999955" y="-539" as="targetPoint" />
          </mxGeometry>
        </mxCell>
        <mxCell id="eUxJNlt0HOpgg095ER0J-32" value="" style="ellipse;whiteSpace=wrap;html=1;aspect=fixed;" parent="1" vertex="1">
          <mxGeometry y="-569" width="60" height="60" as="geometry" />
        </mxCell>
        <mxCell id="eUxJNlt0HOpgg095ER0J-122" value="Product A" style="text;html=1;align=center;verticalAlign=middle;resizable=0;points=[];autosize=1;strokeColor=none;fillColor=none;" parent="1" vertex="1">
          <mxGeometry x="-775" y="-929" width="80" height="30" as="geometry" />
        </mxCell>
        <mxCell id="eUxJNlt0HOpgg095ER0J-123" value="Product B" style="text;html=1;align=center;verticalAlign=middle;resizable=0;points=[];autosize=1;strokeColor=none;fillColor=none;" parent="1" vertex="1">
          <mxGeometry x="-775" y="-794" width="80" height="30" as="geometry" />
        </mxCell>
        <mxCell id="eUxJNlt0HOpgg095ER0J-124" value="Product C" style="text;html=1;align=center;verticalAlign=middle;resizable=0;points=[];autosize=1;strokeColor=none;fillColor=none;" parent="1" vertex="1">
          <mxGeometry x="-775" y="-674" width="80" height="30" as="geometry" />
        </mxCell>
        <mxCell id="eUxJNlt0HOpgg095ER0J-125" value="Product D" style="text;html=1;align=center;verticalAlign=middle;resizable=0;points=[];autosize=1;strokeColor=none;fillColor=none;" parent="1" vertex="1">
          <mxGeometry x="-775" y="-554" width="80" height="30" as="geometry" />
        </mxCell>
        <mxCell id="eUxJNlt0HOpgg095ER0J-126" value="Product E" style="text;html=1;align=center;verticalAlign=middle;resizable=0;points=[];autosize=1;strokeColor=none;fillColor=none;" parent="1" vertex="1">
          <mxGeometry x="-775" y="-430" width="80" height="30" as="geometry" />
        </mxCell>
        <mxCell id="eUxJNlt0HOpgg095ER0J-127" value="Product F" style="text;html=1;align=center;verticalAlign=middle;resizable=0;points=[];autosize=1;strokeColor=none;fillColor=none;" parent="1" vertex="1">
          <mxGeometry x="-775" y="-310" width="80" height="30" as="geometry" />
        </mxCell>
        <mxCell id="eUxJNlt0HOpgg095ER0J-128" value="Milling Machine 1" style="text;html=1;align=center;verticalAlign=middle;resizable=0;points=[];autosize=1;strokeColor=none;fillColor=none;" parent="1" vertex="1">
          <mxGeometry x="-605" y="-794" width="120" height="30" as="geometry" />
        </mxCell>
        <mxCell id="eUxJNlt0HOpgg095ER0J-129" value="Milling Machine 2" style="text;html=1;align=center;verticalAlign=middle;resizable=0;points=[];autosize=1;strokeColor=none;fillColor=none;" parent="1" vertex="1">
          <mxGeometry x="-605" y="-430" width="120" height="30" as="geometry" />
        </mxCell>
        <mxCell id="eUxJNlt0HOpgg095ER0J-130" value="Command to mill&lt;div&gt;&amp;nbsp;a product&lt;/div&gt;" style="text;html=1;align=center;verticalAlign=middle;resizable=0;points=[];autosize=1;strokeColor=none;fillColor=none;" parent="1" vertex="1">
          <mxGeometry x="-695" y="-943" width="110" height="40" as="geometry" />
        </mxCell>
        <mxCell id="eUxJNlt0HOpgg095ER0J-131" value="Mill Pr. B" style="text;html=1;align=center;verticalAlign=middle;resizable=0;points=[];autosize=1;strokeColor=none;fillColor=none;" parent="1" vertex="1">
          <mxGeometry x="-675" y="-809" width="70" height="30" as="geometry" />
        </mxCell>
        <mxCell id="eUxJNlt0HOpgg095ER0J-132" value="Mill Pr. C" style="text;html=1;align=center;verticalAlign=middle;resizable=0;points=[];autosize=1;strokeColor=none;fillColor=none;" parent="1" vertex="1">
          <mxGeometry x="-675" y="-689" width="70" height="30" as="geometry" />
        </mxCell>
        <mxCell id="eUxJNlt0HOpgg095ER0J-133" value="Mill Pr. D" style="text;html=1;align=center;verticalAlign=middle;resizable=0;points=[];autosize=1;strokeColor=none;fillColor=none;" parent="1" vertex="1">
          <mxGeometry x="-675" y="-569" width="70" height="30" as="geometry" />
        </mxCell>
        <mxCell id="eUxJNlt0HOpgg095ER0J-134" value="Mill Pr. E" style="text;html=1;align=center;verticalAlign=middle;resizable=0;points=[];autosize=1;strokeColor=none;fillColor=none;" parent="1" vertex="1">
          <mxGeometry x="-675" y="-445" width="70" height="30" as="geometry" />
        </mxCell>
        <mxCell id="eUxJNlt0HOpgg095ER0J-135" value="Mill Pr. F" style="text;html=1;align=center;verticalAlign=middle;resizable=0;points=[];autosize=1;strokeColor=none;fillColor=none;" parent="1" vertex="1">
          <mxGeometry x="-675" y="-325" width="70" height="30" as="geometry" />
        </mxCell>
        <mxCell id="eUxJNlt0HOpgg095ER0J-136" value="Milling Process" style="text;html=1;align=center;verticalAlign=middle;resizable=0;points=[];autosize=1;strokeColor=none;fillColor=none;" parent="1" vertex="1">
          <mxGeometry x="-505" y="-809" width="100" height="30" as="geometry" />
        </mxCell>
        <mxCell id="eUxJNlt0HOpgg095ER0J-137" value="Milling Process" style="text;html=1;align=center;verticalAlign=middle;resizable=0;points=[];autosize=1;strokeColor=none;fillColor=none;" parent="1" vertex="1">
          <mxGeometry x="-505" y="-445" width="100" height="30" as="geometry" />
        </mxCell>
        <mxCell id="eUxJNlt0HOpgg095ER0J-138" value="Sawing Machine" style="text;html=1;align=center;verticalAlign=middle;resizable=0;points=[];autosize=1;strokeColor=none;fillColor=none;" parent="1" vertex="1">
          <mxGeometry x="-420" y="-599" width="110" height="30" as="geometry" />
        </mxCell>
        <mxCell id="eUxJNlt0HOpgg095ER0J-139" value="Sawing Process" style="text;html=1;align=center;verticalAlign=middle;resizable=0;points=[];autosize=1;strokeColor=none;fillColor=none;" parent="1" vertex="1">
          <mxGeometry x="-315" y="-614" width="110" height="30" as="geometry" />
        </mxCell>
        <mxCell id="eUxJNlt0HOpgg095ER0J-140" value="Cleaning &amp;amp;&amp;nbsp;&lt;div&gt;Drying&lt;/div&gt;" style="text;html=1;align=center;verticalAlign=middle;resizable=0;points=[];autosize=1;strokeColor=none;fillColor=none;" parent="1" vertex="1">
          <mxGeometry x="-210" y="-609" width="90" height="40" as="geometry" />
        </mxCell>
        <mxCell id="eUxJNlt0HOpgg095ER0J-141" value="Cleaning &amp;amp;&amp;nbsp;&lt;div&gt;Drying Process&lt;/div&gt;" style="text;html=1;align=center;verticalAlign=middle;resizable=0;points=[];autosize=1;strokeColor=none;fillColor=none;" parent="1" vertex="1">
          <mxGeometry x="-115" y="-624" width="100" height="40" as="geometry" />
        </mxCell>
        <mxCell id="eUxJNlt0HOpgg095ER0J-142" value="Verification" style="text;html=1;align=center;verticalAlign=middle;resizable=0;points=[];autosize=1;strokeColor=none;fillColor=none;" parent="1" vertex="1">
          <mxGeometry x="-10" y="-599" width="80" height="30" as="geometry" />
        </mxCell>
        <mxCell id="eUxJNlt0HOpgg095ER0J-174" value="input" style="triangle;whiteSpace=wrap;html=1;direction=south;fillColor=#d5e8d4;strokeColor=#82b366;" parent="1" vertex="1">
          <mxGeometry x="-775" y="-1009" width="80" height="60" as="geometry" />
        </mxCell>
        <mxCell id="eUxJNlt0HOpgg095ER0J-188" value="P.T.: Process Time&lt;div&gt;R.T: Rest Time&lt;/div&gt;&lt;div&gt;S.T: Supplier Time&lt;/div&gt;" style="text;html=1;align=center;verticalAlign=middle;resizable=0;points=[];autosize=1;strokeColor=none;fillColor=none;" parent="1" vertex="1">
          <mxGeometry x="-545" y="-255" width="120" height="60" as="geometry" />
        </mxCell>
        <mxCell id="eUxJNlt0HOpgg095ER0J-189" value="R.T" style="text;html=1;align=center;verticalAlign=middle;resizable=0;points=[];autosize=1;strokeColor=none;fillColor=none;" parent="1" vertex="1">
          <mxGeometry x="-536" y="-718" width="40" height="30" as="geometry" />
        </mxCell>
        <mxCell id="eUxJNlt0HOpgg095ER0J-190" value="R.T" style="text;html=1;align=center;verticalAlign=middle;resizable=0;points=[];autosize=1;strokeColor=none;fillColor=none;" parent="1" vertex="1">
          <mxGeometry x="-534" y="-355" width="40" height="30" as="geometry" />
        </mxCell>
        <mxCell id="eUxJNlt0HOpgg095ER0J-192" value="P.T." style="text;html=1;align=center;verticalAlign=middle;resizable=0;points=[];autosize=1;strokeColor=none;fillColor=none;" parent="1" vertex="1">
          <mxGeometry x="-455" y="-341" width="40" height="30" as="geometry" />
        </mxCell>
        <mxCell id="eUxJNlt0HOpgg095ER0J-193" value="P.T." style="text;html=1;align=center;verticalAlign=middle;resizable=0;points=[];autosize=1;strokeColor=none;fillColor=none;" parent="1" vertex="1">
          <mxGeometry x="-460" y="-697" width="40" height="30" as="geometry" />
        </mxCell>
        <mxCell id="eUxJNlt0HOpgg095ER0J-194" value="R.T." style="text;html=1;align=center;verticalAlign=middle;resizable=0;points=[];autosize=1;strokeColor=none;fillColor=none;" parent="1" vertex="1">
          <mxGeometry x="-354" y="-525" width="40" height="30" as="geometry" />
        </mxCell>
        <mxCell id="eUxJNlt0HOpgg095ER0J-195" value="P.T." style="text;html=1;align=center;verticalAlign=middle;resizable=0;points=[];autosize=1;strokeColor=none;fillColor=none;" parent="1" vertex="1">
          <mxGeometry x="-280" y="-494" width="40" height="30" as="geometry" />
        </mxCell>
        <mxCell id="eUxJNlt0HOpgg095ER0J-196" value="R.T." style="text;html=1;align=center;verticalAlign=middle;resizable=0;points=[];autosize=1;strokeColor=none;fillColor=none;" parent="1" vertex="1">
          <mxGeometry x="-161" y="-519" width="40" height="30" as="geometry" />
        </mxCell>
        <mxCell id="eUxJNlt0HOpgg095ER0J-197" value="P.T." style="text;html=1;align=center;verticalAlign=middle;resizable=0;points=[];autosize=1;strokeColor=none;fillColor=none;" parent="1" vertex="1">
          <mxGeometry x="-85" y="-494" width="40" height="30" as="geometry" />
        </mxCell>
        <mxCell id="eUxJNlt0HOpgg095ER0J-211" value="R.T." style="text;html=1;align=center;verticalAlign=middle;resizable=0;points=[];autosize=1;strokeColor=none;fillColor=none;" parent="1" vertex="1">
          <mxGeometry x="40" y="-519" width="40" height="30" as="geometry" />
        </mxCell>
        <mxCell id="sAIwI4nGpeulssWVe8KQ-1" value="Material Flux without storage" style="text;html=1;align=center;verticalAlign=middle;resizable=0;points=[];autosize=1;strokeColor=none;fillColor=none;" parent="1" vertex="1">
          <mxGeometry x="-780" y="-1060" width="180" height="30" as="geometry" />
        </mxCell>
        <mxCell id="udwKPdp13qZEXDaH-4BK-16" value="" style="edgeStyle=orthogonalEdgeStyle;rounded=0;orthogonalLoop=1;jettySize=auto;html=1;" parent="1" source="udwKPdp13qZEXDaH-4BK-17" target="udwKPdp13qZEXDaH-4BK-19" edge="1">
          <mxGeometry relative="1" as="geometry" />
        </mxCell>
        <mxCell id="udwKPdp13qZEXDaH-4BK-17" value="" style="ellipse;whiteSpace=wrap;html=1;aspect=fixed;" parent="1" vertex="1">
          <mxGeometry x="420" y="-599" width="60" height="60" as="geometry" />
        </mxCell>
        <mxCell id="udwKPdp13qZEXDaH-4BK-18" value="" style="edgeStyle=orthogonalEdgeStyle;rounded=0;orthogonalLoop=1;jettySize=auto;html=1;" parent="1" source="udwKPdp13qZEXDaH-4BK-19" target="udwKPdp13qZEXDaH-4BK-21" edge="1">
          <mxGeometry relative="1" as="geometry" />
        </mxCell>
        <mxCell id="udwKPdp13qZEXDaH-4BK-19" value="" style="rounded=0;whiteSpace=wrap;html=1;fillColor=#000000;" parent="1" vertex="1">
          <mxGeometry x="535" y="-614" width="20" height="90" as="geometry" />
        </mxCell>
        <mxCell id="udwKPdp13qZEXDaH-4BK-20" value="" style="edgeStyle=orthogonalEdgeStyle;rounded=0;orthogonalLoop=1;jettySize=auto;html=1;" parent="1" source="udwKPdp13qZEXDaH-4BK-21" target="udwKPdp13qZEXDaH-4BK-23" edge="1">
          <mxGeometry relative="1" as="geometry" />
        </mxCell>
        <mxCell id="udwKPdp13qZEXDaH-4BK-21" value="" style="ellipse;whiteSpace=wrap;html=1;aspect=fixed;" parent="1" vertex="1">
          <mxGeometry x="610" y="-599" width="60" height="60" as="geometry" />
        </mxCell>
        <mxCell id="udwKPdp13qZEXDaH-4BK-22" value="" style="edgeStyle=orthogonalEdgeStyle;rounded=0;orthogonalLoop=1;jettySize=auto;html=1;" parent="1" source="udwKPdp13qZEXDaH-4BK-23" target="udwKPdp13qZEXDaH-4BK-25" edge="1">
          <mxGeometry relative="1" as="geometry" />
        </mxCell>
        <mxCell id="udwKPdp13qZEXDaH-4BK-23" value="" style="rounded=0;whiteSpace=wrap;html=1;fillColor=#000000;" parent="1" vertex="1">
          <mxGeometry x="725" y="-614" width="20" height="90" as="geometry" />
        </mxCell>
        <mxCell id="udwKPdp13qZEXDaH-4BK-24" value="" style="edgeStyle=orthogonalEdgeStyle;rounded=0;orthogonalLoop=1;jettySize=auto;html=1;" parent="1" source="udwKPdp13qZEXDaH-4BK-25" target="udwKPdp13qZEXDaH-4BK-27" edge="1">
          <mxGeometry relative="1" as="geometry" />
        </mxCell>
        <mxCell id="udwKPdp13qZEXDaH-4BK-25" value="" style="ellipse;whiteSpace=wrap;html=1;aspect=fixed;" parent="1" vertex="1">
          <mxGeometry x="800" y="-599" width="60" height="60" as="geometry" />
        </mxCell>
        <mxCell id="udwKPdp13qZEXDaH-4BK-26" value="" style="edgeStyle=orthogonalEdgeStyle;rounded=0;orthogonalLoop=1;jettySize=auto;html=1;entryX=0;entryY=0.5;entryDx=0;entryDy=0;" parent="1" source="udwKPdp13qZEXDaH-4BK-27" target="K0NCOJOLvleWsXENWuCb-4" edge="1">
          <mxGeometry relative="1" as="geometry">
            <mxPoint x="995" y="-569" as="targetPoint" />
          </mxGeometry>
        </mxCell>
        <mxCell id="udwKPdp13qZEXDaH-4BK-27" value="" style="rounded=0;whiteSpace=wrap;html=1;fillColor=#000000;" parent="1" vertex="1">
          <mxGeometry x="915" y="-614" width="20" height="90" as="geometry" />
        </mxCell>
        <mxCell id="udwKPdp13qZEXDaH-4BK-77" value="Laser Machine &amp;amp;&lt;div&gt;&amp;nbsp;Storage for products&lt;/div&gt;" style="text;html=1;align=center;verticalAlign=middle;resizable=0;points=[];autosize=1;strokeColor=none;fillColor=none;" parent="1" vertex="1">
          <mxGeometry x="380" y="-639" width="140" height="40" as="geometry" />
        </mxCell>
        <mxCell id="udwKPdp13qZEXDaH-4BK-78" value="Laser Process" style="text;html=1;align=center;verticalAlign=middle;resizable=0;points=[];autosize=1;strokeColor=none;fillColor=none;" parent="1" vertex="1">
          <mxGeometry x="495" y="-644" width="100" height="30" as="geometry" />
        </mxCell>
        <mxCell id="udwKPdp13qZEXDaH-4BK-79" value="Cleaning &amp;amp;&amp;nbsp;&lt;div&gt;Drying&lt;/div&gt;" style="text;html=1;align=center;verticalAlign=middle;resizable=0;points=[];autosize=1;strokeColor=none;fillColor=none;" parent="1" vertex="1">
          <mxGeometry x="595" y="-639" width="90" height="40" as="geometry" />
        </mxCell>
        <mxCell id="udwKPdp13qZEXDaH-4BK-80" value="Cleaning &amp;amp;&amp;nbsp;&lt;div&gt;Drying Process&lt;/div&gt;" style="text;html=1;align=center;verticalAlign=middle;resizable=0;points=[];autosize=1;strokeColor=none;fillColor=none;" parent="1" vertex="1">
          <mxGeometry x="690" y="-654" width="100" height="40" as="geometry" />
        </mxCell>
        <mxCell id="udwKPdp13qZEXDaH-4BK-81" value="Verification" style="text;html=1;align=center;verticalAlign=middle;resizable=0;points=[];autosize=1;strokeColor=none;fillColor=none;" parent="1" vertex="1">
          <mxGeometry x="795" y="-629" width="80" height="30" as="geometry" />
        </mxCell>
        <mxCell id="udwKPdp13qZEXDaH-4BK-82" value="Verification Process" style="text;html=1;align=center;verticalAlign=middle;resizable=0;points=[];autosize=1;strokeColor=none;fillColor=none;" parent="1" vertex="1">
          <mxGeometry x="865" y="-644" width="130" height="30" as="geometry" />
        </mxCell>
        <mxCell id="udwKPdp13qZEXDaH-4BK-83" value="Main Storage&amp;nbsp;&lt;div&gt;for Products&lt;/div&gt;" style="text;html=1;align=center;verticalAlign=middle;resizable=0;points=[];autosize=1;strokeColor=none;fillColor=none;" parent="1" vertex="1">
          <mxGeometry x="1002.5" y="-639" width="100" height="40" as="geometry" />
        </mxCell>
        <mxCell id="udwKPdp13qZEXDaH-4BK-109" value="P.T." style="text;html=1;align=center;verticalAlign=middle;resizable=0;points=[];autosize=1;strokeColor=none;fillColor=none;" parent="1" vertex="1">
          <mxGeometry x="525" y="-525" width="40" height="30" as="geometry" />
        </mxCell>
        <mxCell id="udwKPdp13qZEXDaH-4BK-110" value="P.T." style="text;html=1;align=center;verticalAlign=middle;resizable=0;points=[];autosize=1;strokeColor=none;fillColor=none;" parent="1" vertex="1">
          <mxGeometry x="715" y="-525" width="40" height="30" as="geometry" />
        </mxCell>
        <mxCell id="udwKPdp13qZEXDaH-4BK-111" value="P.T." style="text;html=1;align=center;verticalAlign=middle;resizable=0;points=[];autosize=1;strokeColor=none;fillColor=none;" parent="1" vertex="1">
          <mxGeometry x="905" y="-524" width="40" height="30" as="geometry" />
        </mxCell>
        <mxCell id="udwKPdp13qZEXDaH-4BK-121" value="R.T." style="text;html=1;align=center;verticalAlign=middle;resizable=0;points=[];autosize=1;strokeColor=none;fillColor=none;" parent="1" vertex="1">
          <mxGeometry x="395" y="-549" width="40" height="30" as="geometry" />
        </mxCell>
        <mxCell id="udwKPdp13qZEXDaH-4BK-122" value="R.T." style="text;html=1;align=center;verticalAlign=middle;resizable=0;points=[];autosize=1;strokeColor=none;fillColor=none;" parent="1" vertex="1">
          <mxGeometry x="645" y="-549" width="40" height="30" as="geometry" />
        </mxCell>
        <mxCell id="udwKPdp13qZEXDaH-4BK-123" value="R.T." style="text;html=1;align=center;verticalAlign=middle;resizable=0;points=[];autosize=1;strokeColor=none;fillColor=none;" parent="1" vertex="1">
          <mxGeometry x="835" y="-549" width="40" height="30" as="geometry" />
        </mxCell>
        <mxCell id="udwKPdp13qZEXDaH-4BK-144" value="" style="shape=cylinder3;whiteSpace=wrap;html=1;boundedLbl=1;backgroundOutline=1;size=3.3333333333332575;" parent="1" vertex="1">
          <mxGeometry x="457" y="-561" width="20" height="30" as="geometry" />
        </mxCell>
        <mxCell id="udwKPdp13qZEXDaH-4BK-146" value="input" style="triangle;whiteSpace=wrap;html=1;direction=south;fillColor=#d5e8d4;strokeColor=#82b366;" parent="1" vertex="1">
          <mxGeometry x="415" y="-723" width="80" height="60" as="geometry" />
        </mxCell>
        <mxCell id="udwKPdp13qZEXDaH-4BK-147" value="Material Flux Storage Laser &amp;amp; no base on storage" style="text;html=1;align=center;verticalAlign=middle;resizable=0;points=[];autosize=1;strokeColor=none;fillColor=none;" parent="1" vertex="1">
          <mxGeometry x="415" y="-764" width="290" height="30" as="geometry" />
        </mxCell>
        <mxCell id="udwKPdp13qZEXDaH-4BK-179" style="edgeStyle=orthogonalEdgeStyle;rounded=0;orthogonalLoop=1;jettySize=auto;html=1;entryX=0;entryY=0.5;entryDx=0;entryDy=0;" parent="1" source="udwKPdp13qZEXDaH-4BK-183" target="udwKPdp13qZEXDaH-4BK-188" edge="1">
          <mxGeometry relative="1" as="geometry" />
        </mxCell>
        <mxCell id="udwKPdp13qZEXDaH-4BK-180" style="edgeStyle=orthogonalEdgeStyle;rounded=0;orthogonalLoop=1;jettySize=auto;html=1;exitX=1;exitY=0.5;exitDx=0;exitDy=0;entryX=0;entryY=0.25;entryDx=0;entryDy=0;" parent="1" source="udwKPdp13qZEXDaH-4BK-183" target="udwKPdp13qZEXDaH-4BK-188" edge="1">
          <mxGeometry relative="1" as="geometry" />
        </mxCell>
        <mxCell id="udwKPdp13qZEXDaH-4BK-181" style="edgeStyle=orthogonalEdgeStyle;rounded=0;orthogonalLoop=1;jettySize=auto;html=1;exitX=1;exitY=0.5;exitDx=0;exitDy=0;entryX=0;entryY=0.75;entryDx=0;entryDy=0;" parent="1" source="udwKPdp13qZEXDaH-4BK-183" target="udwKPdp13qZEXDaH-4BK-188" edge="1">
          <mxGeometry relative="1" as="geometry" />
        </mxCell>
        <mxCell id="udwKPdp13qZEXDaH-4BK-182" style="edgeStyle=orthogonalEdgeStyle;rounded=0;orthogonalLoop=1;jettySize=auto;html=1;exitX=1;exitY=0.5;exitDx=0;exitDy=0;entryX=0;entryY=0;entryDx=0;entryDy=0;" parent="1" source="udwKPdp13qZEXDaH-4BK-183" target="udwKPdp13qZEXDaH-4BK-188" edge="1">
          <mxGeometry relative="1" as="geometry">
            <Array as="points">
              <mxPoint x="-632" y="411" />
              <mxPoint x="-632" y="366" />
            </Array>
          </mxGeometry>
        </mxCell>
        <mxCell id="udwKPdp13qZEXDaH-4BK-183" value="" style="ellipse;whiteSpace=wrap;html=1;aspect=fixed;" parent="1" vertex="1">
          <mxGeometry x="-720" y="381" width="60" height="60" as="geometry" />
        </mxCell>
        <mxCell id="udwKPdp13qZEXDaH-4BK-184" style="edgeStyle=orthogonalEdgeStyle;rounded=0;orthogonalLoop=1;jettySize=auto;html=1;exitX=1;exitY=0;exitDx=0;exitDy=0;entryX=0;entryY=0.5;entryDx=0;entryDy=0;" parent="1" source="udwKPdp13qZEXDaH-4BK-188" target="udwKPdp13qZEXDaH-4BK-190" edge="1">
          <mxGeometry relative="1" as="geometry">
            <Array as="points">
              <mxPoint x="-557" y="366" />
              <mxPoint x="-557" y="411" />
            </Array>
          </mxGeometry>
        </mxCell>
        <mxCell id="udwKPdp13qZEXDaH-4BK-185" style="edgeStyle=orthogonalEdgeStyle;rounded=0;orthogonalLoop=1;jettySize=auto;html=1;exitX=1;exitY=0.25;exitDx=0;exitDy=0;entryX=0;entryY=0.5;entryDx=0;entryDy=0;" parent="1" source="udwKPdp13qZEXDaH-4BK-188" target="udwKPdp13qZEXDaH-4BK-190" edge="1">
          <mxGeometry relative="1" as="geometry" />
        </mxCell>
        <mxCell id="udwKPdp13qZEXDaH-4BK-186" style="edgeStyle=orthogonalEdgeStyle;rounded=0;orthogonalLoop=1;jettySize=auto;html=1;exitX=1;exitY=0.5;exitDx=0;exitDy=0;" parent="1" source="udwKPdp13qZEXDaH-4BK-188" edge="1">
          <mxGeometry relative="1" as="geometry">
            <mxPoint x="-530" y="411.20000000000005" as="targetPoint" />
          </mxGeometry>
        </mxCell>
        <mxCell id="udwKPdp13qZEXDaH-4BK-187" style="edgeStyle=orthogonalEdgeStyle;rounded=0;orthogonalLoop=1;jettySize=auto;html=1;exitX=1;exitY=0.75;exitDx=0;exitDy=0;entryX=0;entryY=0.5;entryDx=0;entryDy=0;" parent="1" source="udwKPdp13qZEXDaH-4BK-188" target="udwKPdp13qZEXDaH-4BK-190" edge="1">
          <mxGeometry relative="1" as="geometry" />
        </mxCell>
        <mxCell id="udwKPdp13qZEXDaH-4BK-188" value="" style="rounded=0;whiteSpace=wrap;html=1;fillColor=#000000;" parent="1" vertex="1">
          <mxGeometry x="-605" y="366" width="20" height="90" as="geometry" />
        </mxCell>
        <mxCell id="udwKPdp13qZEXDaH-4BK-189" style="edgeStyle=orthogonalEdgeStyle;rounded=0;orthogonalLoop=1;jettySize=auto;html=1;exitX=1;exitY=0.5;exitDx=0;exitDy=0;entryX=0;entryY=0.5;entryDx=0;entryDy=0;" parent="1" source="udwKPdp13qZEXDaH-4BK-190" target="udwKPdp13qZEXDaH-4BK-192" edge="1">
          <mxGeometry relative="1" as="geometry" />
        </mxCell>
        <mxCell id="udwKPdp13qZEXDaH-4BK-190" value="" style="ellipse;whiteSpace=wrap;html=1;aspect=fixed;" parent="1" vertex="1">
          <mxGeometry x="-530" y="381" width="60" height="60" as="geometry" />
        </mxCell>
        <mxCell id="udwKPdp13qZEXDaH-4BK-191" style="edgeStyle=orthogonalEdgeStyle;rounded=0;orthogonalLoop=1;jettySize=auto;html=1;exitX=1;exitY=0.5;exitDx=0;exitDy=0;" parent="1" source="udwKPdp13qZEXDaH-4BK-192" target="udwKPdp13qZEXDaH-4BK-195" edge="1">
          <mxGeometry relative="1" as="geometry" />
        </mxCell>
        <mxCell id="udwKPdp13qZEXDaH-4BK-192" value="" style="rounded=0;whiteSpace=wrap;html=1;fillColor=#000000;" parent="1" vertex="1">
          <mxGeometry x="-410" y="366" width="20" height="90" as="geometry" />
        </mxCell>
        <mxCell id="udwKPdp13qZEXDaH-4BK-193" style="edgeStyle=orthogonalEdgeStyle;rounded=0;orthogonalLoop=1;jettySize=auto;html=1;exitX=1;exitY=0;exitDx=0;exitDy=0;entryX=0;entryY=0.5;entryDx=0;entryDy=0;" parent="1" source="udwKPdp13qZEXDaH-4BK-195" target="udwKPdp13qZEXDaH-4BK-197" edge="1">
          <mxGeometry relative="1" as="geometry" />
        </mxCell>
        <mxCell id="udwKPdp13qZEXDaH-4BK-194" style="edgeStyle=orthogonalEdgeStyle;rounded=0;orthogonalLoop=1;jettySize=auto;html=1;exitX=1;exitY=1;exitDx=0;exitDy=0;entryX=0;entryY=0.5;entryDx=0;entryDy=0;" parent="1" source="udwKPdp13qZEXDaH-4BK-195" target="udwKPdp13qZEXDaH-4BK-201" edge="1">
          <mxGeometry relative="1" as="geometry" />
        </mxCell>
        <mxCell id="udwKPdp13qZEXDaH-4BK-195" value="" style="ellipse;whiteSpace=wrap;html=1;aspect=fixed;" parent="1" vertex="1">
          <mxGeometry x="-335" y="381" width="60" height="60" as="geometry" />
        </mxCell>
        <mxCell id="udwKPdp13qZEXDaH-4BK-196" style="edgeStyle=orthogonalEdgeStyle;rounded=0;orthogonalLoop=1;jettySize=auto;html=1;entryX=0;entryY=0.5;entryDx=0;entryDy=0;" parent="1" source="udwKPdp13qZEXDaH-4BK-197" target="udwKPdp13qZEXDaH-4BK-199" edge="1">
          <mxGeometry relative="1" as="geometry" />
        </mxCell>
        <mxCell id="udwKPdp13qZEXDaH-4BK-197" value="" style="rounded=0;whiteSpace=wrap;html=1;fillColor=#000000;" parent="1" vertex="1">
          <mxGeometry x="-220" y="276" width="20" height="90" as="geometry" />
        </mxCell>
        <mxCell id="udwKPdp13qZEXDaH-4BK-198" style="edgeStyle=orthogonalEdgeStyle;rounded=0;orthogonalLoop=1;jettySize=auto;html=1;entryX=0;entryY=0.5;entryDx=0;entryDy=0;" parent="1" source="udwKPdp13qZEXDaH-4BK-199" target="udwKPdp13qZEXDaH-4BK-205" edge="1">
          <mxGeometry relative="1" as="geometry" />
        </mxCell>
        <mxCell id="udwKPdp13qZEXDaH-4BK-199" value="" style="ellipse;whiteSpace=wrap;html=1;aspect=fixed;" parent="1" vertex="1">
          <mxGeometry x="-145" y="291" width="60" height="60" as="geometry" />
        </mxCell>
        <mxCell id="udwKPdp13qZEXDaH-4BK-200" style="edgeStyle=orthogonalEdgeStyle;rounded=0;orthogonalLoop=1;jettySize=auto;html=1;entryX=0;entryY=0.5;entryDx=0;entryDy=0;" parent="1" source="udwKPdp13qZEXDaH-4BK-201" target="udwKPdp13qZEXDaH-4BK-203" edge="1">
          <mxGeometry relative="1" as="geometry" />
        </mxCell>
        <mxCell id="udwKPdp13qZEXDaH-4BK-201" value="" style="rounded=0;whiteSpace=wrap;html=1;fillColor=#000000;" parent="1" vertex="1">
          <mxGeometry x="-220" y="456" width="20" height="90" as="geometry" />
        </mxCell>
        <mxCell id="udwKPdp13qZEXDaH-4BK-202" style="edgeStyle=orthogonalEdgeStyle;rounded=0;orthogonalLoop=1;jettySize=auto;html=1;entryX=0;entryY=0.5;entryDx=0;entryDy=0;" parent="1" source="udwKPdp13qZEXDaH-4BK-203" target="udwKPdp13qZEXDaH-4BK-222" edge="1">
          <mxGeometry relative="1" as="geometry" />
        </mxCell>
        <mxCell id="udwKPdp13qZEXDaH-4BK-203" value="" style="ellipse;whiteSpace=wrap;html=1;aspect=fixed;" parent="1" vertex="1">
          <mxGeometry x="-145" y="471" width="60" height="60" as="geometry" />
        </mxCell>
        <mxCell id="udwKPdp13qZEXDaH-4BK-204" style="edgeStyle=orthogonalEdgeStyle;rounded=0;orthogonalLoop=1;jettySize=auto;html=1;exitX=1;exitY=0.5;exitDx=0;exitDy=0;entryX=0.5;entryY=0;entryDx=0;entryDy=0;" parent="1" source="udwKPdp13qZEXDaH-4BK-205" target="udwKPdp13qZEXDaH-4BK-210" edge="1">
          <mxGeometry relative="1" as="geometry" />
        </mxCell>
        <mxCell id="udwKPdp13qZEXDaH-4BK-205" value="" style="rounded=0;whiteSpace=wrap;html=1;fillColor=#000000;" parent="1" vertex="1">
          <mxGeometry x="-10" y="276" width="20" height="90" as="geometry" />
        </mxCell>
        <mxCell id="udwKPdp13qZEXDaH-4BK-206" style="edgeStyle=orthogonalEdgeStyle;rounded=0;orthogonalLoop=1;jettySize=auto;html=1;" parent="1" source="udwKPdp13qZEXDaH-4BK-210" target="udwKPdp13qZEXDaH-4BK-224" edge="1">
          <mxGeometry relative="1" as="geometry" />
        </mxCell>
        <mxCell id="udwKPdp13qZEXDaH-4BK-207" style="edgeStyle=orthogonalEdgeStyle;rounded=0;orthogonalLoop=1;jettySize=auto;html=1;exitX=1;exitY=1;exitDx=0;exitDy=0;entryX=0;entryY=1;entryDx=0;entryDy=0;" parent="1" source="udwKPdp13qZEXDaH-4BK-210" target="udwKPdp13qZEXDaH-4BK-224" edge="1">
          <mxGeometry relative="1" as="geometry">
            <Array as="points">
              <mxPoint x="138" y="432" />
              <mxPoint x="138" y="456" />
            </Array>
          </mxGeometry>
        </mxCell>
        <mxCell id="udwKPdp13qZEXDaH-4BK-208" style="edgeStyle=orthogonalEdgeStyle;rounded=0;orthogonalLoop=1;jettySize=auto;html=1;exitX=1;exitY=0;exitDx=0;exitDy=0;entryX=0;entryY=0;entryDx=0;entryDy=0;" parent="1" source="udwKPdp13qZEXDaH-4BK-210" target="udwKPdp13qZEXDaH-4BK-224" edge="1">
          <mxGeometry relative="1" as="geometry">
            <Array as="points">
              <mxPoint x="138" y="390" />
              <mxPoint x="138" y="366" />
            </Array>
          </mxGeometry>
        </mxCell>
        <mxCell id="udwKPdp13qZEXDaH-4BK-209" style="edgeStyle=orthogonalEdgeStyle;rounded=0;orthogonalLoop=1;jettySize=auto;html=1;exitX=1;exitY=0.5;exitDx=0;exitDy=0;entryX=0;entryY=0.75;entryDx=0;entryDy=0;" parent="1" source="udwKPdp13qZEXDaH-4BK-210" target="udwKPdp13qZEXDaH-4BK-224" edge="1">
          <mxGeometry relative="1" as="geometry" />
        </mxCell>
        <mxCell id="udwKPdp13qZEXDaH-4BK-210" value="" style="ellipse;whiteSpace=wrap;html=1;aspect=fixed;" parent="1" vertex="1">
          <mxGeometry x="55" y="381" width="60" height="60" as="geometry" />
        </mxCell>
        <mxCell id="udwKPdp13qZEXDaH-4BK-211" style="edgeStyle=orthogonalEdgeStyle;rounded=0;orthogonalLoop=1;jettySize=auto;html=1;exitX=0;exitY=0.5;exitDx=0;exitDy=0;entryX=0.5;entryY=0;entryDx=0;entryDy=0;" parent="1" source="udwKPdp13qZEXDaH-4BK-212" target="udwKPdp13qZEXDaH-4BK-210" edge="1">
          <mxGeometry relative="1" as="geometry" />
        </mxCell>
        <mxCell id="udwKPdp13qZEXDaH-4BK-212" value="" style="rounded=0;whiteSpace=wrap;html=1;fillColor=#000000;rotation=-90;" parent="1" vertex="1">
          <mxGeometry x="75" y="206" width="20" height="90" as="geometry" />
        </mxCell>
        <mxCell id="udwKPdp13qZEXDaH-4BK-213" value="" style="edgeStyle=orthogonalEdgeStyle;rounded=0;orthogonalLoop=1;jettySize=auto;html=1;" parent="1" source="udwKPdp13qZEXDaH-4BK-214" target="udwKPdp13qZEXDaH-4BK-212" edge="1">
          <mxGeometry relative="1" as="geometry" />
        </mxCell>
        <mxCell id="udwKPdp13qZEXDaH-4BK-214" value="" style="ellipse;whiteSpace=wrap;html=1;aspect=fixed;" parent="1" vertex="1">
          <mxGeometry x="55" y="127" width="60" height="60" as="geometry" />
        </mxCell>
        <mxCell id="udwKPdp13qZEXDaH-4BK-215" value="" style="edgeStyle=orthogonalEdgeStyle;rounded=0;orthogonalLoop=1;jettySize=auto;html=1;" parent="1" source="udwKPdp13qZEXDaH-4BK-218" target="udwKPdp13qZEXDaH-4BK-214" edge="1">
          <mxGeometry relative="1" as="geometry">
            <Array as="points">
              <mxPoint x="85" y="44" />
            </Array>
          </mxGeometry>
        </mxCell>
        <mxCell id="udwKPdp13qZEXDaH-4BK-216" style="edgeStyle=orthogonalEdgeStyle;rounded=0;orthogonalLoop=1;jettySize=auto;html=1;entryX=0.5;entryY=0;entryDx=0;entryDy=0;" parent="1" source="udwKPdp13qZEXDaH-4BK-218" target="udwKPdp13qZEXDaH-4BK-231" edge="1">
          <mxGeometry relative="1" as="geometry">
            <Array as="points">
              <mxPoint x="265" y="44" />
            </Array>
          </mxGeometry>
        </mxCell>
        <mxCell id="udwKPdp13qZEXDaH-4BK-217" style="edgeStyle=orthogonalEdgeStyle;rounded=0;orthogonalLoop=1;jettySize=auto;html=1;exitX=0.75;exitY=0;exitDx=0;exitDy=0;entryX=1;entryY=0.5;entryDx=0;entryDy=0;" parent="1" source="udwKPdp13qZEXDaH-4BK-218" target="udwKPdp13qZEXDaH-4BK-290" edge="1">
          <mxGeometry relative="1" as="geometry">
            <Array as="points">
              <mxPoint x="132" y="44" />
              <mxPoint x="-58" y="44" />
            </Array>
          </mxGeometry>
        </mxCell>
        <mxCell id="udwKPdp13qZEXDaH-4BK-218" value="" style="rounded=0;whiteSpace=wrap;html=1;fillColor=#000000;rotation=-90;" parent="1" vertex="1">
          <mxGeometry x="167" y="-1" width="20" height="90" as="geometry" />
        </mxCell>
        <mxCell id="udwKPdp13qZEXDaH-4BK-219" value="" style="edgeStyle=orthogonalEdgeStyle;rounded=0;orthogonalLoop=1;jettySize=auto;html=1;" parent="1" source="udwKPdp13qZEXDaH-4BK-220" target="udwKPdp13qZEXDaH-4BK-218" edge="1">
          <mxGeometry relative="1" as="geometry" />
        </mxCell>
        <mxCell id="udwKPdp13qZEXDaH-4BK-220" value="" style="ellipse;whiteSpace=wrap;html=1;aspect=fixed;" parent="1" vertex="1">
          <mxGeometry x="147" y="-80" width="60" height="60" as="geometry" />
        </mxCell>
        <mxCell id="udwKPdp13qZEXDaH-4BK-221" style="edgeStyle=orthogonalEdgeStyle;rounded=0;orthogonalLoop=1;jettySize=auto;html=1;exitX=1;exitY=0.5;exitDx=0;exitDy=0;" parent="1" source="udwKPdp13qZEXDaH-4BK-222" target="udwKPdp13qZEXDaH-4BK-210" edge="1">
          <mxGeometry relative="1" as="geometry" />
        </mxCell>
        <mxCell id="udwKPdp13qZEXDaH-4BK-222" value="" style="rounded=0;whiteSpace=wrap;html=1;fillColor=#000000;" parent="1" vertex="1">
          <mxGeometry x="-10" y="456" width="20" height="90" as="geometry" />
        </mxCell>
        <mxCell id="udwKPdp13qZEXDaH-4BK-223" style="edgeStyle=orthogonalEdgeStyle;rounded=0;orthogonalLoop=1;jettySize=auto;html=1;entryX=0;entryY=0.5;entryDx=0;entryDy=0;" parent="1" source="udwKPdp13qZEXDaH-4BK-224" target="udwKPdp13qZEXDaH-4BK-227" edge="1">
          <mxGeometry relative="1" as="geometry" />
        </mxCell>
        <mxCell id="udwKPdp13qZEXDaH-4BK-224" value="" style="rounded=0;whiteSpace=wrap;html=1;fillColor=#000000;" parent="1" vertex="1">
          <mxGeometry x="160" y="366" width="20" height="90" as="geometry" />
        </mxCell>
        <mxCell id="udwKPdp13qZEXDaH-4BK-225" style="edgeStyle=orthogonalEdgeStyle;rounded=0;orthogonalLoop=1;jettySize=auto;html=1;entryX=0;entryY=0.5;entryDx=0;entryDy=0;" parent="1" source="udwKPdp13qZEXDaH-4BK-227" target="udwKPdp13qZEXDaH-4BK-233" edge="1">
          <mxGeometry relative="1" as="geometry" />
        </mxCell>
        <mxCell id="udwKPdp13qZEXDaH-4BK-226" style="edgeStyle=orthogonalEdgeStyle;rounded=0;orthogonalLoop=1;jettySize=auto;html=1;exitX=1;exitY=0.5;exitDx=0;exitDy=0;entryX=0;entryY=0.25;entryDx=0;entryDy=0;" parent="1" source="udwKPdp13qZEXDaH-4BK-227" target="udwKPdp13qZEXDaH-4BK-233" edge="1">
          <mxGeometry relative="1" as="geometry" />
        </mxCell>
        <mxCell id="udwKPdp13qZEXDaH-4BK-227" value="" style="ellipse;whiteSpace=wrap;html=1;aspect=fixed;" parent="1" vertex="1">
          <mxGeometry x="235" y="381" width="60" height="60" as="geometry" />
        </mxCell>
        <mxCell id="udwKPdp13qZEXDaH-4BK-228" style="edgeStyle=orthogonalEdgeStyle;rounded=0;orthogonalLoop=1;jettySize=auto;html=1;entryX=0.5;entryY=0;entryDx=0;entryDy=0;" parent="1" source="udwKPdp13qZEXDaH-4BK-229" target="udwKPdp13qZEXDaH-4BK-227" edge="1">
          <mxGeometry relative="1" as="geometry" />
        </mxCell>
        <mxCell id="udwKPdp13qZEXDaH-4BK-229" value="" style="rounded=0;whiteSpace=wrap;html=1;fillColor=#000000;rotation=-90;" parent="1" vertex="1">
          <mxGeometry x="255" y="206" width="20" height="90" as="geometry" />
        </mxCell>
        <mxCell id="udwKPdp13qZEXDaH-4BK-230" style="edgeStyle=orthogonalEdgeStyle;rounded=0;orthogonalLoop=1;jettySize=auto;html=1;entryX=1;entryY=0.5;entryDx=0;entryDy=0;" parent="1" source="udwKPdp13qZEXDaH-4BK-231" target="udwKPdp13qZEXDaH-4BK-229" edge="1">
          <mxGeometry relative="1" as="geometry" />
        </mxCell>
        <mxCell id="udwKPdp13qZEXDaH-4BK-231" value="" style="ellipse;whiteSpace=wrap;html=1;aspect=fixed;" parent="1" vertex="1">
          <mxGeometry x="235" y="127" width="60" height="60" as="geometry" />
        </mxCell>
        <mxCell id="udwKPdp13qZEXDaH-4BK-232" style="edgeStyle=orthogonalEdgeStyle;rounded=0;orthogonalLoop=1;jettySize=auto;html=1;" parent="1" source="udwKPdp13qZEXDaH-4BK-233" target="udwKPdp13qZEXDaH-4BK-235" edge="1">
          <mxGeometry relative="1" as="geometry" />
        </mxCell>
        <mxCell id="udwKPdp13qZEXDaH-4BK-233" value="" style="rounded=0;whiteSpace=wrap;html=1;fillColor=#000000;" parent="1" vertex="1">
          <mxGeometry x="350" y="366" width="20" height="90" as="geometry" />
        </mxCell>
        <mxCell id="udwKPdp13qZEXDaH-4BK-234" style="edgeStyle=orthogonalEdgeStyle;rounded=0;orthogonalLoop=1;jettySize=auto;html=1;entryX=0;entryY=0.5;entryDx=0;entryDy=0;" parent="1" source="udwKPdp13qZEXDaH-4BK-235" target="udwKPdp13qZEXDaH-4BK-237" edge="1">
          <mxGeometry relative="1" as="geometry" />
        </mxCell>
        <mxCell id="udwKPdp13qZEXDaH-4BK-235" value="" style="ellipse;whiteSpace=wrap;html=1;aspect=fixed;" parent="1" vertex="1">
          <mxGeometry x="425" y="381" width="60" height="60" as="geometry" />
        </mxCell>
        <mxCell id="udwKPdp13qZEXDaH-4BK-236" style="edgeStyle=orthogonalEdgeStyle;rounded=0;orthogonalLoop=1;jettySize=auto;html=1;entryX=0;entryY=0.5;entryDx=0;entryDy=0;" parent="1" source="udwKPdp13qZEXDaH-4BK-237" target="udwKPdp13qZEXDaH-4BK-238" edge="1">
          <mxGeometry relative="1" as="geometry" />
        </mxCell>
        <mxCell id="udwKPdp13qZEXDaH-4BK-237" value="" style="rounded=0;whiteSpace=wrap;html=1;fillColor=#000000;" parent="1" vertex="1">
          <mxGeometry x="550" y="366" width="20" height="90" as="geometry" />
        </mxCell>
        <mxCell id="udwKPdp13qZEXDaH-4BK-238" value="" style="ellipse;whiteSpace=wrap;html=1;aspect=fixed;" parent="1" vertex="1">
          <mxGeometry x="625" y="381" width="60" height="60" as="geometry" />
        </mxCell>
        <mxCell id="udwKPdp13qZEXDaH-4BK-239" style="edgeStyle=orthogonalEdgeStyle;rounded=0;orthogonalLoop=1;jettySize=auto;html=1;entryX=-0.097;entryY=0.247;entryDx=0;entryDy=0;entryPerimeter=0;" parent="1" source="udwKPdp13qZEXDaH-4BK-210" target="udwKPdp13qZEXDaH-4BK-224" edge="1">
          <mxGeometry relative="1" as="geometry" />
        </mxCell>
        <mxCell id="udwKPdp13qZEXDaH-4BK-240" value="Main Storage&amp;nbsp;&lt;div style=&quot;font-size: 16px;&quot;&gt;for Products&lt;/div&gt;" style="text;html=1;align=center;verticalAlign=middle;resizable=0;points=[];autosize=1;strokeColor=none;fillColor=none;fontSize=16;" parent="1" vertex="1">
          <mxGeometry x="-750" y="336" width="120" height="50" as="geometry" />
        </mxCell>
        <mxCell id="udwKPdp13qZEXDaH-4BK-241" value="Transport to&amp;nbsp;&lt;div style=&quot;font-size: 16px;&quot;&gt;Commissioning&lt;/div&gt;" style="text;html=1;align=center;verticalAlign=middle;resizable=0;points=[];autosize=1;strokeColor=none;fillColor=none;fontSize=16;" parent="1" vertex="1">
          <mxGeometry x="-660" y="307" width="130" height="50" as="geometry" />
        </mxCell>
        <mxCell id="udwKPdp13qZEXDaH-4BK-242" value="Commissioning" style="text;html=1;align=center;verticalAlign=middle;resizable=0;points=[];autosize=1;strokeColor=none;fillColor=none;fontSize=16;" parent="1" vertex="1">
          <mxGeometry x="-565" y="351" width="130" height="30" as="geometry" />
        </mxCell>
        <mxCell id="udwKPdp13qZEXDaH-4BK-243" value="Transport to&amp;nbsp;&lt;div style=&quot;font-size: 16px;&quot;&gt;Powder coating&lt;/div&gt;" style="text;html=1;align=center;verticalAlign=middle;resizable=0;points=[];autosize=1;strokeColor=none;fillColor=none;fontSize=16;" parent="1" vertex="1">
          <mxGeometry x="-470" y="311" width="130" height="50" as="geometry" />
        </mxCell>
        <mxCell id="udwKPdp13qZEXDaH-4BK-244" value="Powder Coating" style="text;html=1;align=center;verticalAlign=middle;resizable=0;points=[];autosize=1;strokeColor=none;fillColor=none;fontSize=16;" parent="1" vertex="1">
          <mxGeometry x="-380" y="351" width="140" height="30" as="geometry" />
        </mxCell>
        <mxCell id="udwKPdp13qZEXDaH-4BK-245" value="Transport to oven" style="text;html=1;align=center;verticalAlign=middle;resizable=0;points=[];autosize=1;strokeColor=none;fillColor=none;fontSize=16;" parent="1" vertex="1">
          <mxGeometry x="-285" y="246" width="150" height="30" as="geometry" />
        </mxCell>
        <mxCell id="udwKPdp13qZEXDaH-4BK-246" value="Transport to oven" style="text;html=1;align=center;verticalAlign=middle;resizable=0;points=[];autosize=1;strokeColor=none;fillColor=none;fontSize=16;" parent="1" vertex="1">
          <mxGeometry x="-285" y="426" width="150" height="30" as="geometry" />
        </mxCell>
        <mxCell id="udwKPdp13qZEXDaH-4BK-247" value="Oven 2" style="text;html=1;align=center;verticalAlign=middle;resizable=0;points=[];autosize=1;strokeColor=none;fillColor=none;fontSize=16;" parent="1" vertex="1">
          <mxGeometry x="-155" y="441" width="80" height="30" as="geometry" />
        </mxCell>
        <mxCell id="udwKPdp13qZEXDaH-4BK-248" value="Oven 1" style="text;html=1;align=center;verticalAlign=middle;resizable=0;points=[];autosize=1;strokeColor=none;fillColor=none;fontSize=16;" parent="1" vertex="1">
          <mxGeometry x="-155" y="261" width="80" height="30" as="geometry" />
        </mxCell>
        <mxCell id="udwKPdp13qZEXDaH-4BK-249" value="Oven Process" style="text;html=1;align=center;verticalAlign=middle;resizable=0;points=[];autosize=1;strokeColor=none;fillColor=none;fontSize=16;" parent="1" vertex="1">
          <mxGeometry x="-80" y="246" width="120" height="30" as="geometry" />
        </mxCell>
        <mxCell id="udwKPdp13qZEXDaH-4BK-250" value="Oven Process" style="text;html=1;align=center;verticalAlign=middle;resizable=0;points=[];autosize=1;strokeColor=none;fillColor=none;fontSize=16;" parent="1" vertex="1">
          <mxGeometry x="-60" y="426" width="120" height="30" as="geometry" />
        </mxCell>
        <mxCell id="udwKPdp13qZEXDaH-4BK-251" value="Montage" style="text;html=1;align=center;verticalAlign=middle;resizable=0;points=[];autosize=1;strokeColor=none;fillColor=none;fontSize=16;" parent="1" vertex="1">
          <mxGeometry x="-25" y="396" width="90" height="30" as="geometry" />
        </mxCell>
        <mxCell id="udwKPdp13qZEXDaH-4BK-252" value="Order to manufacture base" style="text;html=1;align=center;verticalAlign=middle;resizable=0;points=[];autosize=1;strokeColor=none;fillColor=none;fontSize=16;" parent="1" vertex="1">
          <mxGeometry x="72" y="-110" width="210" height="30" as="geometry" />
        </mxCell>
        <mxCell id="udwKPdp13qZEXDaH-4BK-253" value="Storage of&amp;nbsp;&lt;div style=&quot;font-size: 16px;&quot;&gt;bases&lt;/div&gt;" style="text;html=1;align=center;verticalAlign=middle;resizable=0;points=[];autosize=1;strokeColor=none;fillColor=none;fontSize=16;" parent="1" vertex="1">
          <mxGeometry x="-40" y="127" width="100" height="50" as="geometry" />
        </mxCell>
        <mxCell id="udwKPdp13qZEXDaH-4BK-254" value="Transport&amp;nbsp;&lt;span style=&quot;background-color: initial; font-size: 16px;&quot;&gt;of&amp;nbsp;&lt;/span&gt;&lt;div style=&quot;font-size: 16px;&quot;&gt;&lt;span style=&quot;background-color: initial; font-size: 16px;&quot;&gt;bases&lt;/span&gt;&lt;/div&gt;" style="text;html=1;align=center;verticalAlign=middle;resizable=0;points=[];autosize=1;strokeColor=none;fillColor=none;fontSize=16;" parent="1" vertex="1">
          <mxGeometry x="102" y="211" width="110" height="50" as="geometry" />
        </mxCell>
        <mxCell id="udwKPdp13qZEXDaH-4BK-255" value="Product Order&lt;div style=&quot;font-size: 16px;&quot;&gt;&amp;nbsp;request&lt;/div&gt;" style="text;html=1;align=center;verticalAlign=middle;resizable=0;points=[];autosize=1;strokeColor=none;fillColor=none;fontSize=16;" parent="1" vertex="1">
          <mxGeometry x="117" y="51" width="120" height="50" as="geometry" />
        </mxCell>
        <mxCell id="udwKPdp13qZEXDaH-4BK-256" value="Electrical Function Mounting" style="text;html=1;align=center;verticalAlign=middle;resizable=0;points=[];autosize=1;strokeColor=none;fillColor=none;fontSize=16;" parent="1" vertex="1">
          <mxGeometry x="305" y="236" width="220" height="30" as="geometry" />
        </mxCell>
        <mxCell id="udwKPdp13qZEXDaH-4BK-257" value="Electrical Function Order" style="text;html=1;align=center;verticalAlign=middle;resizable=0;points=[];autosize=1;strokeColor=none;fillColor=none;fontSize=16;" parent="1" vertex="1">
          <mxGeometry x="295" y="127" width="200" height="30" as="geometry" />
        </mxCell>
        <mxCell id="udwKPdp13qZEXDaH-4BK-258" value="Eletrical Function&lt;div style=&quot;font-size: 16px;&quot;&gt;&amp;nbsp;Verification&lt;/div&gt;" style="text;html=1;align=center;verticalAlign=middle;resizable=0;points=[];autosize=1;strokeColor=none;fillColor=none;fontSize=16;" parent="1" vertex="1">
          <mxGeometry x="190" y="442" width="150" height="50" as="geometry" />
        </mxCell>
        <mxCell id="udwKPdp13qZEXDaH-4BK-259" value="Mounting mechanical&lt;div&gt;&amp;nbsp;parts&lt;/div&gt;" style="text;html=1;align=center;verticalAlign=middle;resizable=0;points=[];autosize=1;strokeColor=none;fillColor=none;fontSize=16;" parent="1" vertex="1">
          <mxGeometry x="80" y="311" width="170" height="50" as="geometry" />
        </mxCell>
        <mxCell id="udwKPdp13qZEXDaH-4BK-260" value="Mouting all parts" style="text;html=1;align=center;verticalAlign=middle;resizable=0;points=[];autosize=1;strokeColor=none;fillColor=none;fontSize=16;" parent="1" vertex="1">
          <mxGeometry x="290" y="336" width="140" height="30" as="geometry" />
        </mxCell>
        <mxCell id="udwKPdp13qZEXDaH-4BK-261" value="Packaging" style="text;html=1;align=center;verticalAlign=middle;resizable=0;points=[];autosize=1;strokeColor=none;fillColor=none;fontSize=16;" parent="1" vertex="1">
          <mxGeometry x="405" y="351" width="100" height="30" as="geometry" />
        </mxCell>
        <mxCell id="udwKPdp13qZEXDaH-4BK-262" value="Final Delivery" style="text;html=1;align=center;verticalAlign=middle;resizable=0;points=[];autosize=1;strokeColor=none;fillColor=none;fontSize=16;" parent="1" vertex="1">
          <mxGeometry x="500" y="336" width="120" height="30" as="geometry" />
        </mxCell>
        <mxCell id="udwKPdp13qZEXDaH-4BK-263" value="Client" style="text;html=1;align=center;verticalAlign=middle;resizable=0;points=[];autosize=1;strokeColor=none;fillColor=none;fontSize=16;" parent="1" vertex="1">
          <mxGeometry x="625" y="351" width="60" height="30" as="geometry" />
        </mxCell>
        <mxCell id="udwKPdp13qZEXDaH-4BK-264" value="" style="shape=cylinder3;whiteSpace=wrap;html=1;boundedLbl=1;backgroundOutline=1;size=3.3333333333332575;" parent="1" vertex="1">
          <mxGeometry x="-680" y="426" width="20" height="30" as="geometry" />
        </mxCell>
        <mxCell id="udwKPdp13qZEXDaH-4BK-265" value="" style="shape=cylinder3;whiteSpace=wrap;html=1;boundedLbl=1;backgroundOutline=1;size=3.3333333333332575;" parent="1" vertex="1">
          <mxGeometry x="92" y="167" width="20" height="30" as="geometry" />
        </mxCell>
        <mxCell id="udwKPdp13qZEXDaH-4BK-266" value="P.T." style="text;html=1;align=center;verticalAlign=middle;resizable=0;points=[];autosize=1;strokeColor=none;fillColor=none;fontSize=16;" parent="1" vertex="1">
          <mxGeometry x="-620" y="456" width="50" height="30" as="geometry" />
        </mxCell>
        <mxCell id="udwKPdp13qZEXDaH-4BK-267" value="P.T." style="text;html=1;align=center;verticalAlign=middle;resizable=0;points=[];autosize=1;strokeColor=none;fillColor=none;fontSize=16;" parent="1" vertex="1">
          <mxGeometry x="-425" y="456" width="50" height="30" as="geometry" />
        </mxCell>
        <mxCell id="udwKPdp13qZEXDaH-4BK-268" value="P.T." style="text;html=1;align=center;verticalAlign=middle;resizable=0;points=[];autosize=1;strokeColor=none;fillColor=none;fontSize=16;" parent="1" vertex="1">
          <mxGeometry x="-235" y="546" width="50" height="30" as="geometry" />
        </mxCell>
        <mxCell id="udwKPdp13qZEXDaH-4BK-269" value="P.T." style="text;html=1;align=center;verticalAlign=middle;resizable=0;points=[];autosize=1;strokeColor=none;fillColor=none;fontSize=16;" parent="1" vertex="1">
          <mxGeometry x="-235" y="366" width="50" height="30" as="geometry" />
        </mxCell>
        <mxCell id="udwKPdp13qZEXDaH-4BK-270" value="P.T." style="text;html=1;align=center;verticalAlign=middle;resizable=0;points=[];autosize=1;strokeColor=none;fillColor=none;fontSize=16;" parent="1" vertex="1">
          <mxGeometry x="-25" y="546" width="50" height="30" as="geometry" />
        </mxCell>
        <mxCell id="udwKPdp13qZEXDaH-4BK-271" value="P.T." style="text;html=1;align=center;verticalAlign=middle;resizable=0;points=[];autosize=1;strokeColor=none;fillColor=none;fontSize=16;" parent="1" vertex="1">
          <mxGeometry x="-25" y="366" width="50" height="30" as="geometry" />
        </mxCell>
        <mxCell id="udwKPdp13qZEXDaH-4BK-272" value="P.T." style="text;html=1;align=center;verticalAlign=middle;resizable=0;points=[];autosize=1;strokeColor=none;fillColor=none;" parent="1" vertex="1">
          <mxGeometry x="150" y="455" width="40" height="30" as="geometry" />
        </mxCell>
        <mxCell id="udwKPdp13qZEXDaH-4BK-273" value="P.T." style="text;html=1;align=center;verticalAlign=middle;resizable=0;points=[];autosize=1;strokeColor=none;fillColor=none;fontSize=16;" parent="1" vertex="1">
          <mxGeometry x="335" y="456" width="50" height="30" as="geometry" />
        </mxCell>
        <mxCell id="udwKPdp13qZEXDaH-4BK-274" value="P.T." style="text;html=1;align=center;verticalAlign=middle;resizable=0;points=[];autosize=1;strokeColor=none;fillColor=none;fontSize=16;" parent="1" vertex="1">
          <mxGeometry x="535" y="455" width="50" height="30" as="geometry" />
        </mxCell>
        <mxCell id="udwKPdp13qZEXDaH-4BK-275" value="R.T." style="text;html=1;align=center;verticalAlign=middle;resizable=0;points=[];autosize=1;strokeColor=none;fillColor=none;fontSize=16;" parent="1" vertex="1">
          <mxGeometry x="-745" y="431" width="50" height="30" as="geometry" />
        </mxCell>
        <mxCell id="udwKPdp13qZEXDaH-4BK-276" value="R.T." style="text;html=1;align=center;verticalAlign=middle;resizable=0;points=[];autosize=1;strokeColor=none;fillColor=none;fontSize=16;" parent="1" vertex="1">
          <mxGeometry x="-497" y="431" width="50" height="30" as="geometry" />
        </mxCell>
        <mxCell id="udwKPdp13qZEXDaH-4BK-277" value="R.T." style="text;html=1;align=center;verticalAlign=middle;resizable=0;points=[];autosize=1;strokeColor=none;fillColor=none;fontSize=16;" parent="1" vertex="1">
          <mxGeometry x="-360" y="431" width="50" height="30" as="geometry" />
        </mxCell>
        <mxCell id="udwKPdp13qZEXDaH-4BK-278" value="R.T." style="text;html=1;align=center;verticalAlign=middle;resizable=0;points=[];autosize=1;strokeColor=none;fillColor=none;fontSize=16;" parent="1" vertex="1">
          <mxGeometry x="-105" y="516" width="50" height="30" as="geometry" />
        </mxCell>
        <mxCell id="udwKPdp13qZEXDaH-4BK-279" value="R.T." style="text;html=1;align=center;verticalAlign=middle;resizable=0;points=[];autosize=1;strokeColor=none;fillColor=none;fontSize=16;" parent="1" vertex="1">
          <mxGeometry x="-105" y="331" width="50" height="30" as="geometry" />
        </mxCell>
        <mxCell id="udwKPdp13qZEXDaH-4BK-280" value="R.T." style="text;html=1;align=center;verticalAlign=middle;resizable=0;points=[];autosize=1;strokeColor=none;fillColor=none;fontSize=16;" parent="1" vertex="1">
          <mxGeometry x="85" y="431" width="50" height="30" as="geometry" />
        </mxCell>
        <mxCell id="udwKPdp13qZEXDaH-4BK-281" value="R.T." style="text;html=1;align=center;verticalAlign=middle;resizable=0;points=[];autosize=1;strokeColor=none;fillColor=none;fontSize=16;" parent="1" vertex="1">
          <mxGeometry x="272" y="425" width="50" height="30" as="geometry" />
        </mxCell>
        <mxCell id="udwKPdp13qZEXDaH-4BK-282" value="R.T." style="text;html=1;align=center;verticalAlign=middle;resizable=0;points=[];autosize=1;strokeColor=none;fillColor=none;fontSize=16;" parent="1" vertex="1">
          <mxGeometry x="450" y="431" width="50" height="30" as="geometry" />
        </mxCell>
        <mxCell id="udwKPdp13qZEXDaH-4BK-283" value="R.T." style="text;html=1;align=center;verticalAlign=middle;resizable=0;points=[];autosize=1;strokeColor=none;fillColor=none;fontSize=16;" parent="1" vertex="1">
          <mxGeometry x="102" y="166.5" width="50" height="30" as="geometry" />
        </mxCell>
        <mxCell id="udwKPdp13qZEXDaH-4BK-284" value="P.T." style="text;html=1;align=center;verticalAlign=middle;resizable=0;points=[];autosize=1;strokeColor=none;fillColor=none;fontSize=16;" parent="1" vertex="1">
          <mxGeometry x="92" y="257" width="50" height="30" as="geometry" />
        </mxCell>
        <mxCell id="udwKPdp13qZEXDaH-4BK-285" value="P.T." style="text;html=1;align=center;verticalAlign=middle;resizable=0;points=[];autosize=1;strokeColor=none;fillColor=none;fontSize=16;" parent="1" vertex="1">
          <mxGeometry x="265" y="261" width="50" height="30" as="geometry" />
        </mxCell>
        <mxCell id="udwKPdp13qZEXDaH-4BK-287" style="edgeStyle=orthogonalEdgeStyle;rounded=0;orthogonalLoop=1;jettySize=auto;html=1;exitX=1;exitY=0.5;exitDx=0;exitDy=0;" parent="1" source="udwKPdp13qZEXDaH-4BK-288" target="udwKPdp13qZEXDaH-4BK-214" edge="1">
          <mxGeometry relative="1" as="geometry">
            <Array as="points">
              <mxPoint x="-87" y="221" />
              <mxPoint x="70" y="221" />
            </Array>
          </mxGeometry>
        </mxCell>
        <mxCell id="udwKPdp13qZEXDaH-4BK-288" value="" style="rounded=0;whiteSpace=wrap;html=1;fillColor=#000000;rotation=-90;" parent="1" vertex="1">
          <mxGeometry x="-97.5" y="132.5" width="20" height="90" as="geometry" />
        </mxCell>
        <mxCell id="udwKPdp13qZEXDaH-4BK-289" value="" style="edgeStyle=orthogonalEdgeStyle;rounded=0;orthogonalLoop=1;jettySize=auto;html=1;" parent="1" source="udwKPdp13qZEXDaH-4BK-290" target="udwKPdp13qZEXDaH-4BK-288" edge="1">
          <mxGeometry relative="1" as="geometry" />
        </mxCell>
        <mxCell id="udwKPdp13qZEXDaH-4BK-290" value="" style="ellipse;whiteSpace=wrap;html=1;aspect=fixed;" parent="1" vertex="1">
          <mxGeometry x="-117.5" y="14" width="60" height="60" as="geometry" />
        </mxCell>
        <mxCell id="udwKPdp13qZEXDaH-4BK-291" value="3D Printer" style="text;html=1;align=center;verticalAlign=middle;resizable=0;points=[];autosize=1;strokeColor=none;fillColor=none;fontSize=16;" parent="1" vertex="1">
          <mxGeometry x="-210" y="21" width="100" height="30" as="geometry" />
        </mxCell>
        <mxCell id="udwKPdp13qZEXDaH-4BK-292" value="3D Printing" style="text;html=1;align=center;verticalAlign=middle;resizable=0;points=[];autosize=1;strokeColor=none;fillColor=none;fontSize=16;" parent="1" vertex="1">
          <mxGeometry x="-235" y="162.5" width="100" height="30" as="geometry" />
        </mxCell>
        <mxCell id="udwKPdp13qZEXDaH-4BK-293" value="R.T." style="text;html=1;align=center;verticalAlign=middle;resizable=0;points=[];autosize=1;strokeColor=none;fillColor=none;fontSize=16;" parent="1" vertex="1">
          <mxGeometry x="-87.5" y="196.5" width="50" height="30" as="geometry" />
        </mxCell>
        <mxCell id="udwKPdp13qZEXDaH-4BK-294" value="P.T." style="text;html=1;align=center;verticalAlign=middle;resizable=0;points=[];autosize=1;strokeColor=none;fillColor=none;fontSize=16;" parent="1" vertex="1">
          <mxGeometry x="-52" y="162.5" width="50" height="30" as="geometry" />
        </mxCell>
        <mxCell id="udwKPdp13qZEXDaH-4BK-296" value="input" style="triangle;whiteSpace=wrap;html=1;direction=south;fillColor=#d5e8d4;strokeColor=#82b366;fontSize=16;" parent="1" vertex="1">
          <mxGeometry x="-740" y="247" width="80" height="60" as="geometry" />
        </mxCell>
        <mxCell id="udwKPdp13qZEXDaH-4BK-297" value="Material Flux with available pieces in&amp;nbsp;&lt;span style=&quot;background-color: initial; font-size: 16px;&quot;&gt;Storage&lt;/span&gt;" style="text;html=1;align=center;verticalAlign=middle;resizable=0;points=[];autosize=1;strokeColor=none;fillColor=none;fontSize=16;" parent="1" vertex="1">
          <mxGeometry x="-765" y="206" width="340" height="30" as="geometry" />
        </mxCell>
        <mxCell id="udwKPdp13qZEXDaH-4BK-391" style="edgeStyle=orthogonalEdgeStyle;rounded=0;orthogonalLoop=1;jettySize=auto;html=1;entryX=0;entryY=0.5;entryDx=0;entryDy=0;" parent="1" source="udwKPdp13qZEXDaH-4BK-300" target="udwKPdp13qZEXDaH-4BK-376" edge="1">
          <mxGeometry relative="1" as="geometry" />
        </mxCell>
        <mxCell id="udwKPdp13qZEXDaH-4BK-300" value="" style="ellipse;whiteSpace=wrap;html=1;aspect=fixed;" parent="1" vertex="1">
          <mxGeometry x="2175" y="869" width="60" height="60" as="geometry" />
        </mxCell>
        <mxCell id="udwKPdp13qZEXDaH-4BK-305" value="Product {A, B, C, D, E and F}" style="text;html=1;align=center;verticalAlign=middle;resizable=0;points=[];autosize=1;strokeColor=none;fillColor=none;" parent="1" vertex="1">
          <mxGeometry x="2105" y="832" width="180" height="30" as="geometry" />
        </mxCell>
        <mxCell id="udwKPdp13qZEXDaH-4BK-339" style="edgeStyle=orthogonalEdgeStyle;rounded=0;orthogonalLoop=1;jettySize=auto;html=1;entryX=0;entryY=0.5;entryDx=0;entryDy=0;" parent="1" source="udwKPdp13qZEXDaH-4BK-311" target="udwKPdp13qZEXDaH-4BK-329" edge="1">
          <mxGeometry relative="1" as="geometry" />
        </mxCell>
        <mxCell id="udwKPdp13qZEXDaH-4BK-311" value="" style="ellipse;whiteSpace=wrap;html=1;aspect=fixed;" parent="1" vertex="1">
          <mxGeometry x="1696" y="869" width="60" height="60" as="geometry" />
        </mxCell>
        <mxCell id="udwKPdp13qZEXDaH-4BK-312" value="Laser Machine &amp;amp;&lt;div&gt;&amp;nbsp;Storage for products&lt;/div&gt;" style="text;html=1;align=center;verticalAlign=middle;resizable=0;points=[];autosize=1;strokeColor=none;fillColor=none;" parent="1" vertex="1">
          <mxGeometry x="1656" y="940" width="140" height="40" as="geometry" />
        </mxCell>
        <mxCell id="udwKPdp13qZEXDaH-4BK-313" value="" style="shape=cylinder3;whiteSpace=wrap;html=1;boundedLbl=1;backgroundOutline=1;size=3.3333333333332575;" parent="1" vertex="1">
          <mxGeometry x="1733" y="907" width="20" height="30" as="geometry" />
        </mxCell>
        <mxCell id="udwKPdp13qZEXDaH-4BK-354" style="edgeStyle=orthogonalEdgeStyle;rounded=0;orthogonalLoop=1;jettySize=auto;html=1;exitX=1;exitY=0.5;exitDx=0;exitDy=0;entryX=0;entryY=0.5;entryDx=0;entryDy=0;" parent="1" source="udwKPdp13qZEXDaH-4BK-314" target="udwKPdp13qZEXDaH-4BK-348" edge="1">
          <mxGeometry relative="1" as="geometry" />
        </mxCell>
        <mxCell id="udwKPdp13qZEXDaH-4BK-355" style="edgeStyle=orthogonalEdgeStyle;rounded=0;orthogonalLoop=1;jettySize=auto;html=1;entryX=0;entryY=0.5;entryDx=0;entryDy=0;" parent="1" source="udwKPdp13qZEXDaH-4BK-314" target="udwKPdp13qZEXDaH-4BK-353" edge="1">
          <mxGeometry relative="1" as="geometry" />
        </mxCell>
        <mxCell id="udwKPdp13qZEXDaH-4BK-314" value="" style="ellipse;whiteSpace=wrap;html=1;aspect=fixed;" parent="1" vertex="1">
          <mxGeometry x="1410" y="1009" width="60" height="60" as="geometry" />
        </mxCell>
        <mxCell id="udwKPdp13qZEXDaH-4BK-315" value="Main Storage&amp;nbsp;&lt;div&gt;for Products&lt;/div&gt;" style="text;html=1;align=center;verticalAlign=middle;resizable=0;points=[];autosize=1;strokeColor=none;fillColor=none;" parent="1" vertex="1">
          <mxGeometry x="1390" y="1080" width="100" height="40" as="geometry" />
        </mxCell>
        <mxCell id="udwKPdp13qZEXDaH-4BK-316" value="" style="shape=cylinder3;whiteSpace=wrap;html=1;boundedLbl=1;backgroundOutline=1;size=3.3333333333332575;" parent="1" vertex="1">
          <mxGeometry x="1450" y="1054" width="20" height="30" as="geometry" />
        </mxCell>
        <mxCell id="udwKPdp13qZEXDaH-4BK-338" style="edgeStyle=orthogonalEdgeStyle;rounded=0;orthogonalLoop=1;jettySize=auto;html=1;entryX=0;entryY=0.5;entryDx=0;entryDy=0;" parent="1" source="udwKPdp13qZEXDaH-4BK-318" target="udwKPdp13qZEXDaH-4BK-327" edge="1">
          <mxGeometry relative="1" as="geometry">
            <mxPoint x="2063" y="1097" as="targetPoint" />
            <Array as="points">
              <mxPoint x="1833" y="1165" />
              <mxPoint x="1833" y="1100" />
            </Array>
          </mxGeometry>
        </mxCell>
        <mxCell id="udwKPdp13qZEXDaH-4BK-318" value="" style="ellipse;whiteSpace=wrap;html=1;aspect=fixed;" parent="1" vertex="1">
          <mxGeometry x="1553" y="1135" width="60" height="60" as="geometry" />
        </mxCell>
        <mxCell id="udwKPdp13qZEXDaH-4BK-319" value="Base manufactured or get from storage" style="text;html=1;align=center;verticalAlign=middle;resizable=0;points=[];autosize=1;strokeColor=none;fillColor=none;" parent="1" vertex="1">
          <mxGeometry x="1468" y="1105" width="230" height="30" as="geometry" />
        </mxCell>
        <mxCell id="udwKPdp13qZEXDaH-4BK-323" style="edgeStyle=orthogonalEdgeStyle;rounded=0;orthogonalLoop=1;jettySize=auto;html=1;entryX=0;entryY=0.5;entryDx=0;entryDy=0;" parent="1" source="udwKPdp13qZEXDaH-4BK-320" target="udwKPdp13qZEXDaH-4BK-322" edge="1">
          <mxGeometry relative="1" as="geometry" />
        </mxCell>
        <mxCell id="udwKPdp13qZEXDaH-4BK-343" style="edgeStyle=orthogonalEdgeStyle;rounded=0;orthogonalLoop=1;jettySize=auto;html=1;exitX=1;exitY=0.5;exitDx=0;exitDy=0;entryX=0;entryY=0.5;entryDx=0;entryDy=0;" parent="1" source="udwKPdp13qZEXDaH-4BK-320" target="udwKPdp13qZEXDaH-4BK-342" edge="1">
          <mxGeometry relative="1" as="geometry" />
        </mxCell>
        <mxCell id="udwKPdp13qZEXDaH-4BK-373" style="edgeStyle=orthogonalEdgeStyle;rounded=0;orthogonalLoop=1;jettySize=auto;html=1;entryX=0;entryY=0.5;entryDx=0;entryDy=0;" parent="1" source="udwKPdp13qZEXDaH-4BK-320" target="udwKPdp13qZEXDaH-4BK-365" edge="1">
          <mxGeometry relative="1" as="geometry">
            <Array as="points">
              <mxPoint x="1213" y="1091" />
              <mxPoint x="1213" y="1297" />
            </Array>
          </mxGeometry>
        </mxCell>
        <mxCell id="udwKPdp13qZEXDaH-4BK-320" value="" style="ellipse;whiteSpace=wrap;html=1;aspect=fixed;" parent="1" vertex="1">
          <mxGeometry x="1053" y="1061" width="60" height="60" as="geometry" />
        </mxCell>
        <mxCell id="udwKPdp13qZEXDaH-4BK-321" value="Order to manufacture" style="text;html=1;align=center;verticalAlign=middle;resizable=0;points=[];autosize=1;strokeColor=none;fillColor=none;" parent="1" vertex="1">
          <mxGeometry x="1013" y="1031" width="140" height="30" as="geometry" />
        </mxCell>
        <mxCell id="udwKPdp13qZEXDaH-4BK-324" style="edgeStyle=orthogonalEdgeStyle;rounded=0;orthogonalLoop=1;jettySize=auto;html=1;entryX=0;entryY=0.5;entryDx=0;entryDy=0;" parent="1" source="udwKPdp13qZEXDaH-4BK-322" target="udwKPdp13qZEXDaH-4BK-314" edge="1">
          <mxGeometry relative="1" as="geometry" />
        </mxCell>
        <mxCell id="udwKPdp13qZEXDaH-4BK-322" value="" style="rounded=0;whiteSpace=wrap;html=1;fillColor=#000000;" parent="1" vertex="1">
          <mxGeometry x="1315" y="994" width="20" height="90" as="geometry" />
        </mxCell>
        <mxCell id="udwKPdp13qZEXDaH-4BK-336" style="edgeStyle=orthogonalEdgeStyle;rounded=0;orthogonalLoop=1;jettySize=auto;html=1;entryX=0;entryY=0.5;entryDx=0;entryDy=0;" parent="1" source="udwKPdp13qZEXDaH-4BK-327" target="udwKPdp13qZEXDaH-4BK-333" edge="1">
          <mxGeometry relative="1" as="geometry" />
        </mxCell>
        <mxCell id="udwKPdp13qZEXDaH-4BK-327" value="" style="rounded=0;whiteSpace=wrap;html=1;fillColor=#000000;" parent="1" vertex="1">
          <mxGeometry x="1916" y="1055" width="20" height="90" as="geometry" />
        </mxCell>
        <mxCell id="udwKPdp13qZEXDaH-4BK-361" style="edgeStyle=orthogonalEdgeStyle;rounded=0;orthogonalLoop=1;jettySize=auto;html=1;entryX=0.5;entryY=0;entryDx=0;entryDy=0;" parent="1" source="udwKPdp13qZEXDaH-4BK-329" target="udwKPdp13qZEXDaH-4BK-314" edge="1">
          <mxGeometry relative="1" as="geometry">
            <Array as="points">
              <mxPoint x="1886" y="817" />
              <mxPoint x="1440" y="817" />
            </Array>
          </mxGeometry>
        </mxCell>
        <mxCell id="udwKPdp13qZEXDaH-4BK-329" value="" style="rounded=0;whiteSpace=wrap;html=1;fillColor=#000000;" parent="1" vertex="1">
          <mxGeometry x="1876" y="854" width="20" height="90" as="geometry" />
        </mxCell>
        <mxCell id="udwKPdp13qZEXDaH-4BK-372" style="edgeStyle=orthogonalEdgeStyle;rounded=0;orthogonalLoop=1;jettySize=auto;html=1;exitX=1;exitY=0.5;exitDx=0;exitDy=0;entryX=0;entryY=0.5;entryDx=0;entryDy=0;" parent="1" source="udwKPdp13qZEXDaH-4BK-333" target="udwKPdp13qZEXDaH-4BK-369" edge="1">
          <mxGeometry relative="1" as="geometry" />
        </mxCell>
        <mxCell id="udwKPdp13qZEXDaH-4BK-333" value="" style="ellipse;whiteSpace=wrap;html=1;aspect=fixed;" parent="1" vertex="1">
          <mxGeometry x="2063" y="1070" width="60" height="60" as="geometry" />
        </mxCell>
        <mxCell id="udwKPdp13qZEXDaH-4BK-334" value="Mounted base and products" style="text;html=1;align=center;verticalAlign=middle;resizable=0;points=[];autosize=1;strokeColor=none;fillColor=none;" parent="1" vertex="1">
          <mxGeometry x="2008" y="1040" width="170" height="30" as="geometry" />
        </mxCell>
        <mxCell id="udwKPdp13qZEXDaH-4BK-344" style="edgeStyle=orthogonalEdgeStyle;rounded=0;orthogonalLoop=1;jettySize=auto;html=1;" parent="1" source="udwKPdp13qZEXDaH-4BK-342" target="udwKPdp13qZEXDaH-4BK-318" edge="1">
          <mxGeometry relative="1" as="geometry" />
        </mxCell>
        <mxCell id="udwKPdp13qZEXDaH-4BK-342" value="" style="rounded=0;whiteSpace=wrap;html=1;fillColor=#000000;" parent="1" vertex="1">
          <mxGeometry x="1313" y="1120" width="20" height="90" as="geometry" />
        </mxCell>
        <mxCell id="udwKPdp13qZEXDaH-4BK-345" style="edgeStyle=orthogonalEdgeStyle;rounded=0;orthogonalLoop=1;jettySize=auto;html=1;exitX=0;exitY=0.5;exitDx=0;exitDy=0;entryX=1;entryY=0.5;entryDx=0;entryDy=0;" parent="1" source="udwKPdp13qZEXDaH-4BK-342" target="udwKPdp13qZEXDaH-4BK-342" edge="1">
          <mxGeometry relative="1" as="geometry">
            <Array as="points">
              <mxPoint x="1323" y="1165" />
              <mxPoint x="1323" y="1165" />
            </Array>
          </mxGeometry>
        </mxCell>
        <mxCell id="udwKPdp13qZEXDaH-4BK-359" style="edgeStyle=orthogonalEdgeStyle;rounded=0;orthogonalLoop=1;jettySize=auto;html=1;entryX=0;entryY=0.5;entryDx=0;entryDy=0;" parent="1" source="udwKPdp13qZEXDaH-4BK-348" target="udwKPdp13qZEXDaH-4BK-349" edge="1">
          <mxGeometry relative="1" as="geometry" />
        </mxCell>
        <mxCell id="udwKPdp13qZEXDaH-4BK-348" value="" style="rounded=0;whiteSpace=wrap;html=1;fillColor=#000000;" parent="1" vertex="1">
          <mxGeometry x="1573" y="994" width="20" height="90" as="geometry" />
        </mxCell>
        <mxCell id="udwKPdp13qZEXDaH-4BK-360" style="edgeStyle=orthogonalEdgeStyle;rounded=0;orthogonalLoop=1;jettySize=auto;html=1;entryX=0;entryY=0.5;entryDx=0;entryDy=0;" parent="1" source="udwKPdp13qZEXDaH-4BK-349" target="udwKPdp13qZEXDaH-4BK-327" edge="1">
          <mxGeometry relative="1" as="geometry">
            <Array as="points">
              <mxPoint x="1833" y="1040" />
              <mxPoint x="1833" y="1100" />
            </Array>
          </mxGeometry>
        </mxCell>
        <mxCell id="udwKPdp13qZEXDaH-4BK-349" value="" style="ellipse;whiteSpace=wrap;html=1;aspect=fixed;" parent="1" vertex="1">
          <mxGeometry x="1718" y="1009" width="60" height="60" as="geometry" />
        </mxCell>
        <mxCell id="udwKPdp13qZEXDaH-4BK-350" value="Production until mouting" style="text;html=1;align=center;verticalAlign=middle;resizable=0;points=[];autosize=1;strokeColor=none;fillColor=none;" parent="1" vertex="1">
          <mxGeometry x="1673" y="975" width="150" height="30" as="geometry" />
        </mxCell>
        <mxCell id="udwKPdp13qZEXDaH-4BK-356" style="edgeStyle=orthogonalEdgeStyle;rounded=0;orthogonalLoop=1;jettySize=auto;html=1;entryX=0;entryY=0.5;entryDx=0;entryDy=0;" parent="1" source="udwKPdp13qZEXDaH-4BK-353" target="udwKPdp13qZEXDaH-4BK-311" edge="1">
          <mxGeometry relative="1" as="geometry" />
        </mxCell>
        <mxCell id="udwKPdp13qZEXDaH-4BK-353" value="" style="rounded=0;whiteSpace=wrap;html=1;fillColor=#000000;" parent="1" vertex="1">
          <mxGeometry x="1573" y="854" width="20" height="90" as="geometry" />
        </mxCell>
        <mxCell id="udwKPdp13qZEXDaH-4BK-371" style="edgeStyle=orthogonalEdgeStyle;rounded=0;orthogonalLoop=1;jettySize=auto;html=1;" parent="1" source="udwKPdp13qZEXDaH-4BK-362" target="udwKPdp13qZEXDaH-4BK-369" edge="1">
          <mxGeometry relative="1" as="geometry" />
        </mxCell>
        <mxCell id="udwKPdp13qZEXDaH-4BK-362" value="" style="ellipse;whiteSpace=wrap;html=1;aspect=fixed;" parent="1" vertex="1">
          <mxGeometry x="1893" y="1267" width="60" height="60" as="geometry" />
        </mxCell>
        <mxCell id="udwKPdp13qZEXDaH-4BK-363" value="Electrical Part selected" style="text;html=1;align=center;verticalAlign=middle;resizable=0;points=[];autosize=1;strokeColor=none;fillColor=none;" parent="1" vertex="1">
          <mxGeometry x="1848" y="1237" width="150" height="30" as="geometry" />
        </mxCell>
        <mxCell id="udwKPdp13qZEXDaH-4BK-364" style="edgeStyle=orthogonalEdgeStyle;rounded=0;orthogonalLoop=1;jettySize=auto;html=1;" parent="1" source="udwKPdp13qZEXDaH-4BK-365" target="udwKPdp13qZEXDaH-4BK-362" edge="1">
          <mxGeometry relative="1" as="geometry" />
        </mxCell>
        <mxCell id="udwKPdp13qZEXDaH-4BK-365" value="" style="rounded=0;whiteSpace=wrap;html=1;fillColor=#000000;" parent="1" vertex="1">
          <mxGeometry x="1313" y="1252" width="20" height="90" as="geometry" />
        </mxCell>
        <mxCell id="udwKPdp13qZEXDaH-4BK-366" style="edgeStyle=orthogonalEdgeStyle;rounded=0;orthogonalLoop=1;jettySize=auto;html=1;exitX=0;exitY=0.5;exitDx=0;exitDy=0;entryX=1;entryY=0.5;entryDx=0;entryDy=0;" parent="1" source="udwKPdp13qZEXDaH-4BK-365" target="udwKPdp13qZEXDaH-4BK-365" edge="1">
          <mxGeometry relative="1" as="geometry">
            <Array as="points">
              <mxPoint x="1323" y="1297" />
              <mxPoint x="1323" y="1297" />
            </Array>
          </mxGeometry>
        </mxCell>
        <mxCell id="udwKPdp13qZEXDaH-4BK-368" style="edgeStyle=orthogonalEdgeStyle;rounded=0;orthogonalLoop=1;jettySize=auto;html=1;entryX=0;entryY=0.5;entryDx=0;entryDy=0;" parent="1" source="udwKPdp13qZEXDaH-4BK-369" target="udwKPdp13qZEXDaH-4BK-370" edge="1">
          <mxGeometry relative="1" as="geometry" />
        </mxCell>
        <mxCell id="udwKPdp13qZEXDaH-4BK-369" value="" style="rounded=0;whiteSpace=wrap;html=1;fillColor=#000000;" parent="1" vertex="1">
          <mxGeometry x="2253" y="1055" width="20" height="90" as="geometry" />
        </mxCell>
        <mxCell id="udwKPdp13qZEXDaH-4BK-370" value="" style="ellipse;whiteSpace=wrap;html=1;aspect=fixed;" parent="1" vertex="1">
          <mxGeometry x="2403" y="1070" width="60" height="60" as="geometry" />
        </mxCell>
        <mxCell id="udwKPdp13qZEXDaH-4BK-374" value="Final Product" style="text;html=1;align=center;verticalAlign=middle;resizable=0;points=[];autosize=1;strokeColor=none;fillColor=none;" parent="1" vertex="1">
          <mxGeometry x="2388" y="1041" width="90" height="30" as="geometry" />
        </mxCell>
        <mxCell id="udwKPdp13qZEXDaH-4BK-378" style="edgeStyle=orthogonalEdgeStyle;rounded=0;orthogonalLoop=1;jettySize=auto;html=1;exitX=1;exitY=0.5;exitDx=0;exitDy=0;entryX=0;entryY=0.5;entryDx=0;entryDy=0;" parent="1" source="udwKPdp13qZEXDaH-4BK-375" target="udwKPdp13qZEXDaH-4BK-300" edge="1">
          <mxGeometry relative="1" as="geometry" />
        </mxCell>
        <mxCell id="udwKPdp13qZEXDaH-4BK-375" value="" style="rounded=0;whiteSpace=wrap;html=1;fillColor=#000000;" parent="1" vertex="1">
          <mxGeometry x="2008" y="854" width="20" height="90" as="geometry" />
        </mxCell>
        <mxCell id="udwKPdp13qZEXDaH-4BK-392" style="edgeStyle=orthogonalEdgeStyle;rounded=0;orthogonalLoop=1;jettySize=auto;html=1;entryX=0.5;entryY=0;entryDx=0;entryDy=0;" parent="1" source="udwKPdp13qZEXDaH-4BK-376" target="udwKPdp13qZEXDaH-4BK-311" edge="1">
          <mxGeometry relative="1" as="geometry">
            <Array as="points">
              <mxPoint x="2425" y="745" />
              <mxPoint x="1726" y="745" />
            </Array>
          </mxGeometry>
        </mxCell>
        <mxCell id="udwKPdp13qZEXDaH-4BK-376" value="" style="rounded=0;whiteSpace=wrap;html=1;fillColor=#000000;" parent="1" vertex="1">
          <mxGeometry x="2415" y="854" width="20" height="90" as="geometry" />
        </mxCell>
        <mxCell id="udwKPdp13qZEXDaH-4BK-393" value="Selecting 4 Products in Storage" style="text;html=1;align=center;verticalAlign=middle;resizable=0;points=[];autosize=1;strokeColor=none;fillColor=none;" parent="1" vertex="1">
          <mxGeometry x="1238" y="964" width="190" height="30" as="geometry" />
        </mxCell>
        <mxCell id="udwKPdp13qZEXDaH-4BK-394" value="Manufacturing base" style="text;html=1;align=center;verticalAlign=middle;resizable=0;points=[];autosize=1;strokeColor=none;fillColor=none;" parent="1" vertex="1">
          <mxGeometry x="1258" y="1089" width="130" height="30" as="geometry" />
        </mxCell>
        <mxCell id="udwKPdp13qZEXDaH-4BK-395" value="Mountig mechanical parts" style="text;html=1;align=center;verticalAlign=middle;resizable=0;points=[];autosize=1;strokeColor=none;fillColor=none;" parent="1" vertex="1">
          <mxGeometry x="1846" y="1024" width="160" height="30" as="geometry" />
        </mxCell>
        <mxCell id="udwKPdp13qZEXDaH-4BK-396" value="Selecting electrical part" style="text;html=1;align=center;verticalAlign=middle;resizable=0;points=[];autosize=1;strokeColor=none;fillColor=none;" parent="1" vertex="1">
          <mxGeometry x="1250" y="1222" width="150" height="30" as="geometry" />
        </mxCell>
        <mxCell id="udwKPdp13qZEXDaH-4BK-397" value="Mouting electrical and mechanical part" style="text;html=1;align=center;verticalAlign=middle;resizable=0;points=[];autosize=1;strokeColor=none;fillColor=none;" parent="1" vertex="1">
          <mxGeometry x="2148" y="1024" width="230" height="30" as="geometry" />
        </mxCell>
        <mxCell id="udwKPdp13qZEXDaH-4BK-398" value="If condition" style="text;html=1;align=center;verticalAlign=middle;resizable=0;points=[];autosize=1;strokeColor=none;fillColor=none;" parent="1" vertex="1">
          <mxGeometry x="1450" y="994" width="80" height="30" as="geometry" />
        </mxCell>
        <mxCell id="udwKPdp13qZEXDaH-4BK-399" value="No storage of manufactured products" style="text;html=1;align=center;verticalAlign=middle;resizable=0;points=[];autosize=1;strokeColor=none;fillColor=none;" parent="1" vertex="1">
          <mxGeometry x="1478" y="824" width="220" height="30" as="geometry" />
        </mxCell>
        <mxCell id="udwKPdp13qZEXDaH-4BK-400" value="if condition" style="text;html=1;align=center;verticalAlign=middle;resizable=0;points=[];autosize=1;strokeColor=none;fillColor=none;" parent="1" vertex="1">
          <mxGeometry x="1753" y="865" width="80" height="30" as="geometry" />
        </mxCell>
        <mxCell id="udwKPdp13qZEXDaH-4BK-401" value="Storage of&amp;nbsp;&lt;div&gt;manufactured&lt;div&gt;&amp;nbsp;products&lt;/div&gt;&lt;/div&gt;" style="text;html=1;align=center;verticalAlign=middle;resizable=0;points=[];autosize=1;strokeColor=none;fillColor=none;" parent="1" vertex="1">
          <mxGeometry x="1533" y="940" width="100" height="60" as="geometry" />
        </mxCell>
        <mxCell id="udwKPdp13qZEXDaH-4BK-402" value="Lasered Products" style="text;html=1;align=center;verticalAlign=middle;resizable=0;points=[];autosize=1;strokeColor=none;fillColor=none;" parent="1" vertex="1">
          <mxGeometry x="1833" y="945" width="120" height="30" as="geometry" />
        </mxCell>
        <mxCell id="udwKPdp13qZEXDaH-4BK-403" value="No lasered Products" style="text;html=1;align=center;verticalAlign=middle;resizable=0;points=[];autosize=1;strokeColor=none;fillColor=none;" parent="1" vertex="1">
          <mxGeometry x="1953" y="824" width="130" height="30" as="geometry" />
        </mxCell>
        <mxCell id="udwKPdp13qZEXDaH-4BK-404" value="Manufacturing Products" style="text;html=1;align=center;verticalAlign=middle;resizable=0;points=[];autosize=1;strokeColor=none;fillColor=none;" parent="1" vertex="1">
          <mxGeometry x="2350" y="944" width="150" height="30" as="geometry" />
        </mxCell>
        <mxCell id="udwKPdp13qZEXDaH-4BK-405" value="Information Flux" style="text;html=1;align=center;verticalAlign=middle;resizable=0;points=[];autosize=1;strokeColor=none;fillColor=none;" parent="1" vertex="1">
          <mxGeometry x="1018" y="950" width="110" height="30" as="geometry" />
        </mxCell>
        <mxCell id="udwKPdp13qZEXDaH-4BK-406" value="input" style="triangle;whiteSpace=wrap;html=1;direction=south;fillColor=#d5e8d4;strokeColor=#82b366;" parent="1" vertex="1">
          <mxGeometry x="1033" y="979" width="80" height="60" as="geometry" />
        </mxCell>
        <mxCell id="Ns9BgkzDY8h8l8DteBmL-1" value="" style="endArrow=none;html=1;rounded=0;exitX=1;exitY=0;exitDx=0;exitDy=0;" parent="1" source="udwKPdp13qZEXDaH-4BK-311" edge="1">
          <mxGeometry width="50" height="50" relative="1" as="geometry">
            <mxPoint x="1950" y="860" as="sourcePoint" />
            <mxPoint x="1840" y="800" as="targetPoint" />
          </mxGeometry>
        </mxCell>
        <mxCell id="Ns9BgkzDY8h8l8DteBmL-2" value="" style="endArrow=none;html=1;rounded=0;" parent="1" edge="1">
          <mxGeometry width="50" height="50" relative="1" as="geometry">
            <mxPoint x="1840" y="800" as="sourcePoint" />
            <mxPoint x="1960" y="800" as="targetPoint" />
          </mxGeometry>
        </mxCell>
        <mxCell id="Ns9BgkzDY8h8l8DteBmL-4" value="" style="endArrow=none;html=1;rounded=0;" parent="1" edge="1">
          <mxGeometry width="50" height="50" relative="1" as="geometry">
            <mxPoint x="1960" y="900" as="sourcePoint" />
            <mxPoint x="1960" y="800" as="targetPoint" />
          </mxGeometry>
        </mxCell>
        <mxCell id="Ns9BgkzDY8h8l8DteBmL-5" value="" style="endArrow=classic;html=1;rounded=0;entryX=0;entryY=0.5;entryDx=0;entryDy=0;" parent="1" target="udwKPdp13qZEXDaH-4BK-375" edge="1">
          <mxGeometry width="50" height="50" relative="1" as="geometry">
            <mxPoint x="1960" y="900" as="sourcePoint" />
            <mxPoint x="2000" y="810" as="targetPoint" />
          </mxGeometry>
        </mxCell>
        <mxCell id="K0NCOJOLvleWsXENWuCb-2" value="" style="whiteSpace=wrap;html=1;aspect=fixed;" parent="1" vertex="1">
          <mxGeometry x="116" y="-568" width="59" height="59" as="geometry" />
        </mxCell>
        <mxCell id="K0NCOJOLvleWsXENWuCb-3" value="Laser &amp;amp; continue" style="text;html=1;align=center;verticalAlign=middle;resizable=0;points=[];autosize=1;strokeColor=none;fillColor=none;" parent="1" vertex="1">
          <mxGeometry x="87" y="-598" width="110" height="30" as="geometry" />
        </mxCell>
        <mxCell id="K0NCOJOLvleWsXENWuCb-4" value="" style="whiteSpace=wrap;html=1;aspect=fixed;" parent="1" vertex="1">
          <mxGeometry x="1023" y="-599" width="59" height="59" as="geometry" />
        </mxCell>
      </root>
    </mxGraphModel>
  </diagram>
</mxfile>
